<svg width="124" height="124" viewBox="0 0 124 124" fill="none" xmlns="http://www.w3.org/2000/svg">
    <g clip-path="url(#clip0)">
        <path d="M72.3208 102H51.4149C50.5787 102 49.7424 101.443 49.7424 100.328V83.8816C49.7424 83.0453 50.2999 82.2091 51.4149 82.2091H72.3208C73.1571 82.2091 73.9933 82.7666 73.9933 83.8816V100.328C73.7146 101.443 73.1571 102 72.3208 102ZM53.0874 98.9338H70.9271V85.5541H53.0874V98.9338Z" fill="#E6236D" />
        <path d="M70.3702 85.8326C69.534 85.8326 68.6978 85.2751 68.6978 84.1602V79.1427C68.6978 75.2403 65.6316 72.1741 61.7291 72.1741C57.8267 72.1741 54.7605 75.2403 54.7605 79.1427V84.1602C54.7605 84.9964 54.203 85.8326 53.088 85.8326C52.2518 85.8326 51.4155 85.2751 51.4155 84.1602V79.1427C51.4155 73.5678 55.8755 69.1079 61.4504 69.1079C67.0253 69.1079 71.4852 73.5678 71.4852 79.1427V84.1602C71.764 84.9964 71.2065 85.8326 70.3702 85.8326Z" fill="#E6236D" />
        <path d="M89.6028 44.0209H33.8537C30.7875 44.0209 28 41.2334 28 37.8885V28.1324C28 24.7875 30.7875 22 34.1324 22H89.8815C93.2265 22 96.0139 24.7875 96.0139 28.1324V38.1672C95.7352 41.2334 92.9477 44.0209 89.6028 44.0209ZM34.1324 25.0662C32.4599 25.0662 31.3449 26.4599 31.3449 27.8537V37.8885C31.3449 39.561 32.7387 40.676 34.1324 40.676H89.8815C91.554 40.676 92.669 39.2822 92.669 37.8885V28.1324C92.669 26.4599 91.2753 25.3449 89.8815 25.3449H34.1324V25.0662Z" fill="#E6236D" />
        <path d="M86.8143 32.8711C86.8143 34.2649 85.6993 35.3799 84.3056 35.3799C82.9119 35.3799 81.7969 34.2649 81.7969 32.8711C81.7969 31.4774 82.9119 30.3624 84.3056 30.3624C85.6993 30.6412 86.8143 31.7562 86.8143 32.8711Z" fill="#E6236D" />
        <path d="M55.8749 34.5436H37.7565C36.9202 34.5436 36.084 33.9861 36.084 32.8711C36.084 32.0348 36.6415 31.1986 37.7565 31.1986H55.8749C56.7112 31.1986 57.5474 31.7561 57.5474 32.8711C57.2687 33.9861 56.7112 34.5436 55.8749 34.5436Z" fill="#E6236D" />
        <path d="M89.6025 62.9756H33.8534C30.5084 62.9756 27.7209 60.1881 27.7209 56.8432V46.8083C27.7209 43.4634 30.5084 40.6759 33.8534 40.6759H89.6025C92.9474 40.6759 95.7349 43.4634 95.7349 46.8083V56.8432C95.7349 60.1881 92.9474 62.9756 89.6025 62.9756ZM34.1321 44.0209C32.4596 44.0209 31.3446 45.4146 31.3446 46.8083V56.8432C31.3446 58.5156 32.7384 59.6306 34.1321 59.6306H89.8812C91.5537 59.6306 92.6687 58.2369 92.6687 56.8432V46.8083C92.6687 45.1358 91.275 44.0209 89.8812 44.0209H34.1321Z" fill="#E6236D" />
        <path d="M86.8143 51.8256C86.8143 53.2193 85.6993 54.3343 84.3056 54.3343C82.9119 54.3343 81.7969 53.2193 81.7969 51.8256C81.7969 50.4319 82.9119 49.3169 84.3056 49.3169C85.6993 49.3169 86.8143 50.4319 86.8143 51.8256Z" fill="#E6236D" />
        <path d="M55.8749 53.4983H37.7565C36.9202 53.4983 36.084 52.9408 36.084 51.8258C36.084 50.9896 36.6415 50.1533 37.7565 50.1533H55.8749C56.7112 50.1533 57.5474 50.7108 57.5474 51.8258C57.2687 52.662 56.7112 53.4983 55.8749 53.4983Z" fill="#E6236D" />
        <path d="M89.6028 44.0209H33.8537C30.7875 44.0209 28 41.2334 28 37.8885V28.1324C28 24.7875 30.7875 22 34.1324 22H89.8815C93.2265 22 96.0139 24.7875 96.0139 28.1324V38.1672C95.7352 41.2334 92.9477 44.0209 89.6028 44.0209ZM34.1324 25.0662C32.4599 25.0662 31.3449 26.4599 31.3449 27.8537V37.8885C31.3449 39.561 32.7387 40.676 34.1324 40.676H89.8815C91.554 40.676 92.669 39.2822 92.669 37.8885V28.1324C92.669 26.4599 91.2753 25.3449 89.8815 25.3449H34.1324V25.0662Z" fill="#E6236D" />
        <path d="M86.8143 32.8711C86.8143 34.2649 85.6993 35.3799 84.3056 35.3799C82.9119 35.3799 81.7969 34.2649 81.7969 32.8711C81.7969 31.4774 82.9119 30.3624 84.3056 30.3624C85.6993 30.6412 86.8143 31.7562 86.8143 32.8711Z" fill="#E6236D" />
        <path d="M55.8749 34.5436H37.7565C36.9202 34.5436 36.084 33.9861 36.084 32.8711C36.084 32.0348 36.6415 31.1986 37.7565 31.1986H55.8749C56.7112 31.1986 57.5474 31.7561 57.5474 32.8711C57.2687 33.9861 56.7112 34.5436 55.8749 34.5436Z" fill="#E6236D" />
        <path d="M89.6025 62.9756H33.8534C30.5084 62.9756 27.7209 60.1881 27.7209 56.8432V46.8083C27.7209 43.4634 30.5084 40.6759 33.8534 40.6759H89.6025C92.9474 40.6759 95.7349 43.4634 95.7349 46.8083V56.8432C95.7349 60.1881 92.9474 62.9756 89.6025 62.9756ZM34.1321 44.0209C32.4596 44.0209 31.3446 45.4146 31.3446 46.8083V56.8432C31.3446 58.5156 32.7384 59.6306 34.1321 59.6306H89.8812C91.5537 59.6306 92.6687 58.2369 92.6687 56.8432V46.8083C92.6687 45.1358 91.275 44.0209 89.8812 44.0209H34.1321Z" fill="#E6236D" />
        <path d="M86.8143 51.8256C86.8143 53.2193 85.6993 54.3343 84.3056 54.3343C82.9119 54.3343 81.7969 53.2193 81.7969 51.8256C81.7969 50.4319 82.9119 49.3169 84.3056 49.3169C85.6993 49.3169 86.8143 50.4319 86.8143 51.8256Z" fill="#E6236D" />
        <path d="M55.8749 53.4983H37.7565C36.9202 53.4983 36.084 52.9408 36.084 51.8258C36.084 50.9896 36.6415 50.1533 37.7565 50.1533H55.8749C56.7112 50.1533 57.5474 50.7108 57.5474 51.8258C57.2687 52.662 56.7112 53.4983 55.8749 53.4983Z" fill="#E6236D" />
        <path d="M89.6028 81.9303H81.5192C80.6829 81.9303 79.8467 81.3728 79.8467 80.2578C79.8467 79.1428 80.4042 78.5853 81.5192 78.5853H89.6028C91.2753 78.5853 92.3902 77.1916 92.3902 75.7979V65.763C92.3902 64.0905 90.9965 62.9756 89.6028 62.9756H33.8537C32.1812 62.9756 31.0662 64.3693 31.0662 65.763V75.7979C31.0662 77.4703 32.4599 78.5853 33.8537 78.5853H41.9373C42.7735 78.5853 43.6098 79.1428 43.6098 80.2578C43.6098 81.3728 43.0523 81.9303 41.9373 81.9303H34.1324C30.7875 81.9303 28 79.1428 28 75.7979V65.763C28 62.4181 30.7875 59.6306 34.1324 59.6306H89.8815C93.2265 59.6306 96.0139 62.4181 96.0139 65.763V75.7979C95.7352 79.1428 92.9477 81.9303 89.6028 81.9303Z" fill="#E6236D" />
        <path d="M86.8143 70.7804C86.8143 72.1742 85.6993 73.2892 84.3056 73.2892C82.9119 73.2892 81.7969 72.1742 81.7969 70.7804C81.7969 69.3867 82.9119 68.2717 84.3056 68.2717C85.6993 68.2717 86.8143 69.3867 86.8143 70.7804Z" fill="#E6236D" />
        <path d="M51.415 72.4529H37.7565C36.9202 72.4529 36.084 71.8954 36.084 70.7804C36.084 69.9441 36.6415 69.1079 37.7565 69.1079H51.415C52.2512 69.1079 53.0875 69.6654 53.0875 70.7804C52.8087 71.6166 52.2512 72.4529 51.415 72.4529Z" fill="#E6236D" />
    </g>
    <defs>
        <clipPath id="clip0">
            <rect width="67.7352" height="80" fill="white" transform="translate(28 22)" />
        </clipPath>
    </defs>
</svg>
