<svg width="124" height="124" viewBox="0 0 124 124" fill="none" xmlns="http://www.w3.org/2000/svg">
    <g clip-path="url(#clip0)">
        <path d="M90.9129 81.5951H84.071C83.0936 81.5951 82.1162 80.9474 82.1162 79.6518C82.1162 78.3563 82.7678 77.7085 84.071 77.7085H90.9129C98.7323 77.7085 104.923 71.5547 104.923 63.7814C104.923 57.3036 100.361 51.7976 94.171 50.1781C93.5194 50.1781 92.8678 49.5304 92.8678 48.8826C91.2387 43.3765 85.0484 39.8138 79.1839 41.7571C78.5323 42.081 78.2065 41.7571 77.5549 41.7571C77.5549 41.7571 77.2291 41.4332 76.9032 40.7854C75.2742 32.0405 67.4549 25.5628 58.3323 25.5628C47.9065 25.5628 39.4355 33.9838 39.4355 44.3482C39.4355 44.996 39.4355 45.6437 38.7839 45.9676C38.4581 46.2915 37.8065 46.6154 37.1548 46.6154C36.1774 46.2915 35.5258 46.2915 34.5484 46.2915C25.7516 46.2915 18.5839 53.417 18.5839 62.1619C18.5839 70.9069 25.7516 78.0324 34.5484 78.0324H39.4355C40.4129 78.0324 41.3903 78.6802 41.3903 79.9757C41.3903 81.2713 40.7387 81.919 39.4355 81.919H34.5484C23.7968 81.919 15 73.1741 15 62.4858C15 51.7976 23.7968 43.0526 34.5484 43.0526C34.8742 43.0526 35.5258 43.0526 35.8516 43.0526C36.829 31.0688 46.6032 22 58.3323 22C68.4323 22 77.2291 28.8016 80.1613 38.1943C81.1387 37.8704 82.1162 37.8704 82.7678 37.8704C88.6323 37.8704 94.171 41.7571 96.1258 46.9393C103.619 49.2065 108.832 56.0081 108.832 63.7814C108.506 73.8219 100.687 81.5951 90.9129 81.5951Z" fill="#E6236D" />
        <path d="M42.3678 54.7127C42.042 54.7127 42.042 54.7127 41.7162 54.7127C36.1775 52.7693 35.5259 45.3199 35.5259 44.9961C35.5259 44.0244 36.1775 43.0527 37.1549 43.0527C38.1323 43.0527 39.1097 43.7005 39.1097 44.6722C39.1097 46.2916 40.0872 50.5021 42.6936 51.4738C43.9968 51.4738 44.6485 52.4454 44.3227 53.4171C43.9968 54.3888 43.3452 54.7127 42.3678 54.7127Z" fill="#E6236D" />
        <path d="M74.6229 48.5588C73.6455 48.5588 72.9939 47.911 72.9939 46.9393C72.3423 41.4333 77.881 38.8422 78.2068 38.8422C79.1842 38.5183 80.1617 38.8422 80.4875 39.8138C80.8133 40.7855 80.4875 41.7571 79.51 42.081C79.51 42.081 76.252 43.7005 76.5778 46.6154C76.5778 47.5871 75.9262 48.2349 74.6229 48.5588Z" fill="#E6236D" />
        <path d="M74.9482 82.5668H61.5901C60.6127 82.5668 59.6353 81.919 59.6353 80.6234V66.0485C59.6353 65.0769 60.2869 64.1052 61.5901 64.1052H65.174C65.4998 64.1052 66.1514 64.4291 66.4772 64.753L76.2514 74.4696C76.5772 74.7935 76.903 75.1174 76.903 75.7651V80.6234C76.5772 81.5951 75.9256 82.5668 74.9482 82.5668ZM63.5449 79.004H73.3191V76.7368L64.8482 68.3158H63.8707V79.004H63.5449Z" fill="#E6236D" />
        <path d="M74.9491 101.999H48.8845C47.9071 101.999 46.9297 101.351 46.9297 100.056V66.3715C46.9297 65.3999 47.5813 64.4282 48.8845 64.4282H65.1749C65.5007 64.4282 66.1523 64.7521 66.4781 65.076L76.2523 74.7926C76.5781 75.1165 76.9039 75.4404 76.9039 76.0881V100.38C76.5781 101.351 75.9265 101.999 74.9491 101.999ZM50.5136 98.4363H72.9942V76.412L64.5232 67.991H50.5136V98.4363V98.4363Z" fill="#E6236D" />
    </g>
    <defs>
        <clipPath id="clip0">
            <rect width="93.5065" height="80" fill="white" transform="translate(15 22)" />
        </clipPath>
    </defs>
</svg>
