<svg width="40" height="40" viewBox="0 0 40 40" fill="none" xmlns="http://www.w3.org/2000/svg">
    <g clip-path="url(#clip0)">
        <path d="M17.2205 21.9333C11.7355 21.9333 7.41943 19.8652 7.41943 17.2575V11.7725C7.41943 11.5028 7.59927 11.233 7.95894 11.233C8.2287 11.233 8.49845 11.4129 8.49845 11.7725C8.49845 13.5709 12.0952 15.4592 17.3104 15.4592C22.6156 15.4592 26.1224 13.5709 26.1224 11.7725C26.1224 11.5028 26.3022 11.233 26.6619 11.233C26.9316 11.233 27.2014 11.4129 27.2014 11.7725V18.8761C27.2014 19.1458 27.0215 19.4156 26.6619 19.4156C26.3921 19.4156 26.2123 19.4156 25.9425 19.5055C25.3131 19.5954 24.7736 19.9551 24.324 20.4047C24.2341 20.4946 24.1442 20.5845 24.0543 20.6744C23.9643 20.7643 23.9643 20.7643 23.8744 20.8543C21.9861 21.4837 19.6483 21.9333 17.2205 21.9333ZM8.40853 13.8407V17.2575C8.40853 19.0559 12.0052 20.9442 17.2205 20.9442C19.4684 20.9442 21.6265 20.5845 23.245 19.9551C23.3349 19.8652 23.4248 19.7752 23.5147 19.6853C24.1442 19.0559 24.8635 18.6962 25.6728 18.5164C25.8526 18.5164 25.9425 18.4265 26.1224 18.4265V13.8407C24.5038 15.3693 21.1769 16.4483 17.3104 16.4483C13.354 16.3584 10.0271 15.3693 8.40853 13.8407Z" fill="#E6236D" />
        <path d="M17.3104 32.9032C11.8254 32.9032 7.41943 30.8351 7.41943 28.2275V17.2575C7.41943 16.9878 7.59927 16.718 7.95894 16.718C8.2287 16.718 8.49845 16.8979 8.49845 17.2575C8.49845 19.0559 12.0952 20.9442 17.3104 20.9442C19.6483 20.9442 21.8063 20.5845 23.5147 19.8651C23.6946 19.7752 23.9643 19.8651 24.1442 20.045C24.324 20.2248 24.2341 20.4946 24.1442 20.6744C23.6946 21.3038 23.4248 22.0232 23.4248 22.7425V24.9905C23.4248 25.2602 23.245 25.53 22.8853 25.53H22.3458C22.0761 25.53 21.8063 25.7997 21.8063 26.0695V31.5545C21.8063 31.6444 21.8063 31.7343 21.8962 31.8242C21.9861 32.0041 21.9861 32.094 21.9861 32.2738C21.8962 32.4537 21.8063 32.5436 21.6265 32.5436C20.1878 32.8133 18.7491 32.9032 17.3104 32.9032ZM8.40853 19.3256V28.3174C8.40853 30.1158 12.0052 31.9142 17.2205 31.9142C18.3894 31.9142 19.6483 31.8242 20.7273 31.6444C20.7273 31.5545 20.7273 31.4646 20.7273 31.4646V25.9796C20.7273 25.1703 21.4466 24.451 22.2559 24.451V22.7425C22.2559 22.203 22.3458 21.7534 22.5256 21.2139C20.997 21.6635 19.1088 21.9333 17.2205 21.9333C13.354 21.9333 10.0271 20.8542 8.40853 19.3256Z" fill="#E6236D" />
        <path d="M17.3104 16.3583C11.8254 16.3583 7.41943 14.2902 7.41943 11.6826C7.41943 9.16491 11.7355 7.0968 17.3104 7.0968C22.7954 7.0968 27.1115 9.16491 27.1115 11.7725C27.1115 14.3802 22.7954 16.3583 17.3104 16.3583ZM17.3104 8.0859C12.0052 8.0859 8.49845 9.97418 8.49845 11.7725C8.49845 13.5709 12.0952 15.4592 17.3104 15.4592C22.6156 15.4592 26.1224 13.5709 26.1224 11.7725C26.1224 9.97418 22.5256 8.0859 17.3104 8.0859Z" fill="#E6236D" />
        <path d="M17.2205 27.4182C11.7355 27.4182 7.41943 25.3501 7.41943 22.7425C7.41943 22.4728 7.59927 22.203 7.95894 22.203C8.2287 22.203 8.49845 22.3828 8.49845 22.7425C8.49845 24.5409 12.0952 26.4291 17.3104 26.4291C18.6592 26.4291 20.0079 26.3392 21.1769 26.0695C21.4466 25.9796 21.7164 26.1594 21.8063 26.4291C21.8962 26.6989 21.7164 26.9687 21.4466 27.0586C20.0979 27.3283 18.6592 27.4182 17.2205 27.4182Z" fill="#E6236D" />
        <path d="M30.9779 32.9032H22.3457C21.8062 32.9032 21.3566 32.6335 21.0869 32.2738C20.9071 32.004 20.8171 31.7343 20.8171 31.3746V25.9795C20.8171 25.1703 21.5365 24.4509 22.3457 24.4509H30.9779C31.7871 24.4509 32.5065 25.1703 32.5065 25.9795V31.4645C32.4165 32.2738 31.7871 32.9032 30.9779 32.9032ZM22.2558 25.44C21.9861 25.44 21.7163 25.7098 21.7163 25.9795V31.4645C21.7163 31.5544 21.7163 31.6444 21.8062 31.7343C21.8962 31.9141 22.076 32.004 22.2558 32.004H30.8879C31.1577 32.004 31.4275 31.7343 31.4275 31.4645V25.9795C31.4275 25.7098 31.1577 25.44 30.8879 25.44H22.2558Z" fill="#E6236D" />
        <path d="M30.4384 25.4401H22.7954C22.5256 25.4401 22.2559 25.2602 22.2559 24.9006V22.6526C22.2559 21.6635 22.6155 20.6744 23.245 19.9551C23.3349 19.8652 23.4248 19.6853 23.5147 19.5954C24.1441 18.966 24.8635 18.6063 25.6727 18.4265C25.9425 18.3365 26.3022 18.3365 26.5719 18.3365C28.9997 18.3365 30.888 20.3147 30.888 22.6526V24.9006C30.9779 25.1703 30.7081 25.4401 30.4384 25.4401ZM23.245 24.451H29.8989V22.7425C29.8989 20.9442 28.3703 19.4156 26.5719 19.4156C26.3022 19.4156 26.1223 19.4156 25.8526 19.5055C25.2232 19.5954 24.6836 19.9551 24.2341 20.4047C24.1441 20.4946 24.0542 20.5845 23.9643 20.6744C23.5147 21.3038 23.245 22.0232 23.245 22.7425V24.451Z" fill="#E6236D" />
        <path d="M22.7954 25.4401C22.5256 25.4401 22.2559 25.2603 22.2559 24.9006C22.2559 24.6308 22.4357 24.3611 22.7954 24.3611C23.155 24.3611 23.3349 24.5409 23.3349 24.9006C23.245 25.1703 23.0651 25.4401 22.7954 25.4401Z" fill="#E6236D" />
        <path d="M30.4384 25.4401C30.1687 25.4401 29.8989 25.2603 29.8989 24.9006C29.8989 24.6308 30.0788 24.3611 30.4384 24.3611C30.7082 24.3611 30.9779 24.5409 30.9779 24.9006C30.9779 25.1703 30.7082 25.4401 30.4384 25.4401Z" fill="#E6236D" />
    </g>
    <defs>
        <clipPath id="clip0">
            <rect width="24.9972" height="25.8064" fill="white" transform="translate(7.41943 7.0968)" />
        </clipPath>
    </defs>
</svg>
