<svg width="124" height="124" viewBox="0 0 124 124" fill="none" xmlns="http://www.w3.org/2000/svg">
    <g clip-path="url(#clip0)">
        <path d="M43.7422 74.4042H23.6725C22.8362 74.4042 22 73.8467 22 72.7317V23.6725C22 22.5575 22.5575 22 23.6725 22H43.7422C44.5784 22 45.4146 22.5575 45.4146 23.6725V73.0105C45.1359 73.5679 44.5784 74.4042 43.7422 74.4042ZM25.0662 71.338H42.0697V25.0662H25.0662V71.338Z" fill="#E6236D" />
        <path d="M33.7069 67.4355C30.9194 67.4355 28.6895 65.2055 28.6895 62.4181C28.6895 59.6306 30.9194 57.4006 33.7069 57.4006C36.4943 57.4006 38.7243 59.6306 38.7243 62.4181C38.7243 65.2055 36.4943 67.4355 33.7069 67.4355ZM33.7069 60.4668C32.5919 60.4668 31.7557 61.3031 31.7557 62.4181C31.7557 63.533 32.5919 64.3693 33.7069 64.3693C34.8219 64.3693 35.6581 63.533 35.6581 62.4181C35.6581 61.3031 34.8219 60.4668 33.7069 60.4668Z" fill="#E6236D" />
        <path d="M37.0518 33.1499H30.0832C29.2469 33.1499 28.6895 32.3136 28.6895 31.4774C28.6895 30.6412 29.2469 29.8049 30.3619 29.8049H37.3306C37.8881 30.0837 38.7243 30.6412 38.7243 31.4774C38.7243 32.3136 37.8881 33.1499 37.0518 33.1499Z" fill="#E6236D" />
        <path d="M37.0522 39.8397H30.0836C29.2474 39.8397 28.4111 39.2822 28.4111 38.1672C28.4111 37.331 28.9686 36.4948 30.0836 36.4948H37.0522C37.8885 36.7735 38.7247 37.6097 38.7247 38.446C38.7247 39.2822 37.8885 39.8397 37.0522 39.8397Z" fill="#E6236D" />
        <path d="M37.0522 46.5296H30.0836C29.2474 46.5296 28.4111 45.9721 28.4111 44.8572C28.4111 44.0209 28.9686 43.1847 30.0836 43.1847H37.0522C37.8885 43.4634 38.7247 44.2997 38.7247 45.1359C38.7247 45.9721 37.8885 46.5296 37.0522 46.5296Z" fill="#E6236D" />
        <path d="M100.606 74.4042H80.5362C79.7 74.4042 78.8638 73.8467 78.8638 72.7317V23.6725C78.8638 22.8362 79.4213 22 80.5362 22H100.606C101.442 22 102.278 22.5575 102.278 23.6725V73.0105C102 73.5679 101.442 74.4042 100.606 74.4042ZM81.93 71.338H98.9335V25.0662H81.93V71.338Z" fill="#E6236D" />
        <path d="M90.5716 67.4355C87.7842 67.4355 85.5542 65.2055 85.5542 62.4181C85.5542 59.6306 87.7842 57.4006 90.5716 57.4006C93.3591 57.4006 95.5891 59.6306 95.5891 62.4181C95.5891 65.2055 93.3591 67.4355 90.5716 67.4355ZM90.5716 60.4668C89.4566 60.4668 88.6204 61.3031 88.6204 62.4181C88.6204 63.533 89.4566 64.3693 90.5716 64.3693C91.6866 64.3693 92.5228 63.533 92.5228 62.4181C92.5228 61.3031 91.6866 60.4668 90.5716 60.4668Z" fill="#E6236D" />
        <path d="M93.916 33.1499H86.9474C86.1111 33.1499 85.2749 32.5924 85.2749 31.4774C85.2749 30.3624 85.8324 29.8049 86.9474 29.8049H93.916C94.7522 29.8049 95.5885 30.3624 95.5885 31.4774C95.5885 32.5924 94.7522 33.1499 93.916 33.1499Z" fill="#E6236D" />
        <path d="M93.916 39.8397H86.9474C86.1111 39.8397 85.2749 39.2822 85.2749 38.1672C85.2749 37.331 85.8324 36.4948 86.9474 36.4948H93.916C94.7522 36.4948 95.5885 37.0522 95.5885 38.1672C95.5885 39.2822 94.7522 39.8397 93.916 39.8397Z" fill="#E6236D" />
        <path d="M93.916 46.5296H86.9474C86.1111 46.5296 85.2749 45.9721 85.2749 44.8572C85.2749 44.0209 85.8324 43.1847 86.9474 43.1847H93.916C94.7522 43.1847 95.5885 43.7422 95.5885 44.8572C95.5885 45.9721 94.7522 46.5296 93.916 46.5296Z" fill="#E6236D" />
        <path d="M62.1392 102C56.843 102 52.3831 97.54 52.3831 92.2439C52.3831 86.9477 56.843 82.4878 62.1392 82.4878C67.4353 82.4878 71.8953 86.9477 71.8953 92.2439C71.6165 97.8188 67.4353 102 62.1392 102ZM62.1392 85.8327C58.5155 85.8327 55.4493 88.8989 55.4493 92.5226C55.4493 96.1463 58.5155 99.2125 62.1392 99.2125C65.7628 99.2125 68.8291 96.1463 68.8291 92.5226C68.5503 88.8989 65.7628 85.8327 62.1392 85.8327Z" fill="#E6236D" />
        <path d="M87.5055 93.9164H70.2233C69.387 93.9164 68.5508 93.359 68.5508 92.244C68.5508 91.4077 69.1083 90.5715 70.2233 90.5715H87.5055C88.3417 90.5715 89.178 90.014 89.178 88.899V72.1743C89.178 71.3381 89.7355 70.5018 90.8504 70.5018C91.6867 70.5018 92.5229 71.0593 92.5229 72.1743V88.899C91.9654 91.9652 90.0142 93.9164 87.5055 93.9164Z" fill="#E6236D" />
        <path d="M54.0556 93.9163H36.7733C34.2646 93.9163 32.0347 91.9651 32.0347 89.1777V73.2892C32.0347 72.4529 32.5922 71.6167 33.7071 71.6167C34.5434 71.6167 35.3796 72.1742 35.3796 73.2892V89.1777C35.3796 90.0139 35.9371 90.8501 37.0521 90.8501H54.3343C55.1706 90.8501 56.0068 91.4076 56.0068 92.5226C55.4493 93.3588 54.8918 93.9163 54.0556 93.9163Z" fill="#E6236D" />
    </g>
    <defs>
        <clipPath id="clip0">
            <rect width="80" height="80" fill="white" transform="translate(22 22)" />
        </clipPath>
    </defs>
</svg>
