<svg width="124" height="124" viewBox="0 0 124 124" fill="none" xmlns="http://www.w3.org/2000/svg">
    <path d="M43.7048 101.609H24.7831C23.9483 101.609 23.1135 101.052 23.1135 99.9392V81.2958C23.1135 80.461 23.67 79.6262 24.7831 79.6262H43.4266C44.2614 79.6262 45.0961 80.1827 45.0961 81.2958V99.9392C45.0961 100.774 44.5396 101.609 43.7048 101.609ZM26.4527 98.5479H42.0353V82.9653H26.4527V98.5479Z" fill="#E6236D" />
    <path d="M87.113 52.3565C86.8348 52.3565 86.2782 52.0782 86 51.8L72.6435 38.4435C72.0869 37.8869 72.0869 36.7739 72.6435 36.2174L86 23.4174C86.5565 22.8609 87.6695 22.8609 88.2261 23.4174L101.583 36.7739C102.139 37.3304 102.139 38.4435 101.583 39L88.2261 52.3565C87.9478 52.3565 87.6695 52.3565 87.113 52.3565ZM75.9826 37.6087L87.113 48.7391L98.2434 37.6087L87.113 26.4783L75.9826 37.6087Z" fill="#E6236D" />
    <path d="M99.0783 101.609H75.4262C74.8696 101.609 74.3131 101.33 74.0349 100.774C73.7566 100.217 73.7566 99.6607 74.0349 99.3825L86.0001 75.7303C86.5566 74.6172 88.2262 74.6172 88.7827 75.7303L100.748 99.3825C101.026 99.939 101.026 100.495 100.748 100.774C100.191 101.33 99.6348 101.609 99.0783 101.609ZM77.9305 98.5477H96.574L87.1131 79.9042L77.9305 98.5477Z" fill="#E6236D" />
    <path d="M34.2435 50.4087C27.5652 50.4087 22 45.1217 22 38.1652C22 31.487 27.5652 25.9218 34.2435 25.9218C40.9217 25.9218 46.487 31.487 46.487 38.1652C46.487 45.1217 40.9217 50.4087 34.2435 50.4087ZM34.2435 28.9826C29.2348 28.9826 25.0609 33.1565 25.0609 38.1652C25.0609 43.1739 29.2348 47.3478 34.2435 47.3478C39.2522 47.3478 43.4261 43.1739 43.4261 38.1652C43.4261 33.1565 39.2522 28.9826 34.2435 28.9826Z" fill="#E6236D" />
    <path d="M67.9131 92.1478H51.4957C50.661 92.1478 49.8262 91.5913 49.8262 90.4783C49.8262 89.3652 50.3827 88.8087 51.4957 88.8087H67.9131C68.7479 88.8087 69.5827 89.3652 69.5827 90.4783C69.5827 91.5913 68.7479 92.1478 67.9131 92.1478Z" fill="#E6236D" />
    <path d="M34.2431 76.5652C33.4083 76.5652 32.5735 76.0087 32.5735 74.8957V57.3652C32.5735 56.5305 33.13 55.6957 34.2431 55.6957C35.0778 56.2522 35.9126 56.8087 35.9126 57.6435V75.1739C35.9126 76.0087 35.0778 76.5652 34.2431 76.5652Z" fill="#E6236D" />
    <path d="M67.9131 39.2782H51.4957C50.661 39.2782 49.8262 38.7217 49.8262 37.6087C49.8262 36.7739 50.3827 35.9391 51.4957 35.9391H67.9131C68.7479 35.9391 69.5827 36.4956 69.5827 37.6087C69.5827 38.4434 68.7479 39.2782 67.9131 39.2782Z" fill="#E6236D" />
    <path d="M87.1129 67.9391C86.2781 67.9391 85.4434 67.3826 85.4434 66.2695V57.6434C85.4434 56.8087 85.9999 55.9739 87.1129 55.9739C87.9477 55.9739 88.7825 56.5304 88.7825 57.6434V66.2695C88.7825 67.3826 87.9477 67.9391 87.1129 67.9391Z" fill="#E6236D" />
</svg>
