<svg width="124" height="124" viewBox="0 0 124 124" fill="none" xmlns="http://www.w3.org/2000/svg">
    <g clip-path="url(#clip0)">
        <path d="M97.2613 90.8642H27.0174C24.23 90.8642 22 88.6342 22 85.8467V50.446C22 49.6098 22.5575 48.7736 23.6725 48.7736H100.606C101.443 48.7736 102.279 49.3311 102.279 50.446V85.8467C102 88.6342 99.77 90.8642 97.2613 90.8642ZM25.0662 51.8398V85.8467C25.0662 86.9617 25.9024 87.7979 27.0174 87.7979H97.2613C98.3763 87.7979 99.2125 86.9617 99.2125 85.8467V51.8398H25.0662Z" fill="#E6236D" />
        <path d="M100.606 51.8397H23.6725C22.5575 51.8397 22 51.2822 22 50.446V39.0174C22 36.23 24.23 34 27.0174 34H97.2613C100.049 34 102.279 36.23 102.279 39.0174V50.446C102 51.2822 101.443 51.8397 100.606 51.8397ZM25.0662 48.7735H98.9338V39.0174C98.9338 37.9024 98.0976 37.0662 96.9826 37.0662H27.0174C25.9024 37.0662 25.0662 37.9024 25.0662 39.0174V48.7735Z" fill="#E6236D" />
        <path d="M78.5855 42.9198C78.5855 44.0348 77.7493 44.8711 76.6343 44.8711C75.5193 44.8711 74.6831 44.0348 74.6831 42.9198C74.6831 41.8049 75.5193 40.9686 76.6343 40.9686C77.7493 40.9686 78.5855 41.8049 78.5855 42.9198Z" fill="#E6236D" />
        <path d="M83.8812 44.8711C84.9588 44.8711 85.8324 43.9975 85.8324 42.9198C85.8324 41.8422 84.9588 40.9686 83.8812 40.9686C82.8035 40.9686 81.9299 41.8422 81.9299 42.9198C81.9299 43.9975 82.8035 44.8711 83.8812 44.8711Z" fill="#E6236D" />
        <path d="M91.1294 44.8711C92.2071 44.8711 93.0807 43.9975 93.0807 42.9198C93.0807 41.8422 92.2071 40.9686 91.1294 40.9686C90.0518 40.9686 89.1782 41.8422 89.1782 42.9198C89.1782 43.9975 90.0518 44.8711 91.1294 44.8711Z" fill="#E6236D" />
        <path d="M62.1393 71.6307C61.303 71.6307 60.4668 71.0732 60.4668 69.9582V35.6725C60.4668 34.8362 61.0243 34 62.1393 34C62.9755 34 63.8117 34.5575 63.8117 35.6725V70.2369C63.533 71.0732 62.9755 71.6307 62.1393 71.6307Z" fill="#E6236D" />
        <path d="M62.1394 74.1395C61.8607 74.1395 61.3032 73.8608 61.0244 73.582L49.5959 62.1535C49.0384 61.596 49.0384 60.481 49.5959 59.9235C50.1533 59.366 51.2683 59.366 51.8258 59.9235L62.1394 70.2371L72.1743 60.2022C72.7317 59.6447 73.8467 59.6447 74.4042 60.2022C74.9617 60.7597 74.9617 61.8747 74.4042 62.4322L62.9756 73.8608C62.9756 74.1395 62.4182 74.1395 62.1394 74.1395Z" fill="#E6236D" />
    </g>
    <defs>
        <clipPath id="clip0">
            <rect width="80" height="56.8641" fill="white" transform="translate(22 34)" />
        </clipPath>
    </defs>
</svg>
