<svg width="124" height="124" viewBox="0 0 124 124" fill="none" xmlns="http://www.w3.org/2000/svg">
    <g clip-path="url(#clip0)">
        <path d="M81.6517 45.0209H43.7423C40.9548 45.0209 38.7249 42.5122 38.7249 39.7247V28.2962C38.7249 25.23 40.9548 23 43.7423 23H81.6517C84.4391 23 86.9478 25.23 86.9478 28.2962V39.7247C86.9478 42.5122 84.4391 45.0209 81.6517 45.0209ZM43.7423 26.0662C42.6273 26.0662 41.7911 26.9024 41.7911 28.0174V39.7247C41.7911 40.8397 42.6273 41.676 43.7423 41.676H81.6517C82.7667 41.676 83.6029 40.8397 83.6029 39.7247V28.2962C83.6029 27.1812 82.7667 26.3449 81.6517 26.3449H43.7423V26.0662Z" fill="#E6236D" />
        <path d="M75.519 36.3798C76.9045 36.3798 78.0277 35.2567 78.0277 33.8711C78.0277 32.4856 76.9045 31.3624 75.519 31.3624C74.1334 31.3624 73.0103 32.4856 73.0103 33.8711C73.0103 35.2567 74.1334 36.3798 75.519 36.3798Z" fill="#E6236D" />
        <path d="M66.3205 35.5436H48.202C47.3658 35.5436 46.5295 34.9861 46.5295 33.8711C46.5295 33.0348 47.087 32.1986 48.202 32.1986H66.3205C67.1567 32.1986 67.993 32.7561 67.993 33.8711C67.993 34.7073 67.1567 35.5436 66.3205 35.5436Z" fill="#E6236D" />
        <path d="M81.6521 63.6968H43.7427C40.9552 63.6968 38.4465 61.4668 38.4465 58.4006V46.9721C38.4465 44.1846 40.6765 41.6759 43.7427 41.6759H81.6521C84.4396 41.6759 86.9483 43.9059 86.9483 46.9721V58.6794C86.9483 61.4668 84.4396 63.6968 81.6521 63.6968ZM43.7427 45.0209C42.6277 45.0209 41.7915 45.8571 41.7915 46.9721V58.6794C41.7915 59.7944 42.6277 60.6306 43.7427 60.6306H81.6521C82.7671 60.6306 83.6033 59.7944 83.6033 58.6794V46.9721C83.6033 45.8571 82.7671 45.0209 81.6521 45.0209H43.7427V45.0209Z" fill="#E6236D" />
        <path d="M75.5202 55.3344C76.9057 55.3344 78.0289 54.2112 78.0289 52.8257C78.0289 51.4402 76.9057 50.317 75.5202 50.317C74.1347 50.317 73.0115 51.4402 73.0115 52.8257C73.0115 54.2112 74.1347 55.3344 75.5202 55.3344Z" fill="#E6236D" />
        <path d="M66.3215 54.2195H48.203C47.3668 54.2195 46.5305 53.662 46.5305 52.547C46.5305 51.7107 47.088 50.8745 48.203 50.8745H66.3215C67.1577 50.8745 67.9939 51.432 67.9939 52.547C67.9939 53.662 67.1577 54.2195 66.3215 54.2195Z" fill="#E6236D" />
        <path d="M62.6971 78.1916C61.8609 78.1916 61.0247 77.6342 61.0247 76.5192V62.0244C61.0247 61.1882 61.5822 60.3519 62.6971 60.3519C63.5334 60.3519 64.3696 60.9094 64.3696 62.0244V76.5192C64.3696 77.6342 63.5334 78.1916 62.6971 78.1916Z" fill="#E6236D" />
        <path d="M71.3385 89.0625H54.0563C53.22 89.0625 52.3838 88.505 52.3838 87.39V76.7977C52.3838 75.9615 52.9413 75.1252 54.0563 75.1252H71.3385C72.1747 75.1252 73.011 75.6827 73.011 76.7977V87.39C72.7322 88.2263 72.1747 89.0625 71.3385 89.0625ZM55.7287 85.9963H69.9448V78.4702H55.7287V85.9963Z" fill="#E6236D" />
        <path d="M80.2576 101.606H45.4144C44.5782 101.606 43.7419 101.049 43.7419 99.9339V87.3904C43.7419 86.5541 44.2994 85.7179 45.4144 85.7179H80.2576C81.0939 85.7179 81.9301 86.2754 81.9301 87.3904V99.9339C81.6514 101.049 81.0939 101.606 80.2576 101.606ZM46.8081 98.5402H78.5852V89.0628H46.8081V98.5402Z" fill="#E6236D" />
        <path d="M44.0209 95.195H23.6725C22.8362 95.195 22 94.6376 22 93.5226C22 92.4076 22.5575 91.8501 23.6725 91.8501H44.0209C44.8571 91.8501 45.6934 92.4076 45.6934 93.5226C45.6934 94.6376 44.8571 95.195 44.0209 95.195Z" fill="#E6236D" />
        <path d="M100.606 95.195H80.2577C79.4214 95.195 78.5852 94.6376 78.5852 93.5226C78.5852 92.4076 79.1427 91.8501 80.2577 91.8501H100.606C101.442 91.8501 102.279 92.4076 102.279 93.5226C102.279 94.6376 101.442 95.195 100.606 95.195Z" fill="#E6236D" />
    </g>
    <defs>
        <clipPath id="clip0">
            <rect width="80" height="78.6063" fill="white" transform="translate(22 23)" />
        </clipPath>
    </defs>
</svg>
