<svg width="124" height="124" viewBox="0 0 124 124" fill="none" xmlns="http://www.w3.org/2000/svg">
    <g clip-path="url(#clip0)">
        <path d="M74.9617 69.3519H66.3206C65.4843 69.3519 64.6481 68.7944 64.6481 67.6794C64.6481 66.8432 65.2056 66.007 66.3206 66.007H73.5679V35.0662H25.0662V66.2857H49.3171C50.1533 66.2857 50.9895 66.8432 50.9895 67.9582C50.9895 68.7944 50.4321 69.6307 49.3171 69.6307H23.6725C22.8362 69.6307 22 69.0732 22 67.9582V33.6725C22 32.5575 22.5575 32 23.6725 32H74.9617C75.7979 32 76.6341 32.5575 76.6341 33.6725V67.9582C76.3554 68.7944 75.7979 69.3519 74.9617 69.3519Z" fill="#E6236D" />
        <path d="M66.5994 63.2196L59.6308 67.122C59.0733 67.4008 59.0733 68.237 59.6308 68.5157L66.5994 72.4182C67.1569 72.6969 67.7144 72.4182 67.7144 71.8607V63.7771C67.7144 63.2196 67.1569 62.9408 66.5994 63.2196Z" fill="#E6236D" />
        <path d="M100.607 82.453H49.3175C48.4813 82.453 47.645 81.8955 47.645 80.7805V46.4948C47.645 45.6586 48.2025 44.8223 49.3175 44.8223H57.9586C58.7948 44.8223 59.6311 45.3798 59.6311 46.4948C59.6311 47.331 59.0736 48.1673 57.9586 48.1673H50.7112V79.3868H98.9342V47.8885H83.3245C82.4882 47.8885 81.652 47.331 81.652 46.2161C81.652 45.3798 82.2095 44.5436 83.3245 44.5436H100.607C101.443 44.5436 102.279 45.1011 102.279 46.2161V80.5018C102 81.6168 101.443 82.453 100.607 82.453Z" fill="#E6236D" />
        <path d="M57.4009 51.2335L64.3695 47.3311C64.927 47.0523 64.927 46.2161 64.3695 45.9373L57.4009 42.0349C56.8434 41.7561 56.2859 42.0349 56.2859 42.5924V50.676C56.2859 50.9547 57.1221 51.5122 57.4009 51.2335Z" fill="#E6236D" />
        <path d="M79.1427 91.0942H70.5016C69.6653 91.0942 68.8291 90.5367 68.8291 89.4217V80.7806C68.8291 79.9444 69.3866 79.1082 70.5016 79.1082H79.1427C79.9789 79.1082 80.8152 79.6656 80.8152 80.7806V89.4217C80.8152 90.258 79.9789 91.0942 79.1427 91.0942ZM72.1741 87.7493H77.749V82.1744H72.1741V87.7493Z" fill="#E6236D" />
        <path d="M87.226 91.0941H62.6964C61.8602 91.0941 61.0239 90.5366 61.0239 89.4216C61.0239 88.5854 61.5814 87.7491 62.6964 87.7491H87.226C88.0623 87.7491 88.8985 88.3066 88.8985 89.4216C88.6197 90.2579 88.0623 91.0941 87.226 91.0941Z" fill="#E6236D" />
    </g>
    <defs>
        <clipPath id="clip0">
            <rect width="80" height="59.0941" fill="white" transform="translate(22 32)" />
        </clipPath>
    </defs>
</svg>
