<svg width="124" height="124" viewBox="0 0 124 124" fill="none" xmlns="http://www.w3.org/2000/svg">
    <g clip-path="url(#clip0)">
        <path d="M71.6167 79.8293H26.7387C24.23 79.8293 22 77.8781 22 75.0906V37.7387C22 34.9512 23.9512 33 26.7387 33H86.669C89.1777 33 91.4077 34.9512 91.4077 37.7387V47.7735C91.4077 48.6098 90.8502 49.446 89.7352 49.446C88.8989 49.446 88.0627 48.8885 88.0627 47.7735V37.7387C88.0627 36.9024 87.5052 36.0662 86.3902 36.0662H26.7387C25.9024 36.0662 25.0662 36.6237 25.0662 37.7387V75.3693C25.0662 76.2056 25.6237 77.0418 26.7387 77.0418H71.8955C72.7317 77.0418 73.5679 77.5993 73.5679 78.7143C73.2892 79.2718 72.453 79.8293 71.6167 79.8293Z" fill="#E6236D" />
        <path d="M66.8778 90.1429H46.2506C45.4144 90.1429 44.5781 89.5854 44.5781 88.4704C44.5781 87.6342 45.1356 86.798 46.2506 86.798H66.8778C67.714 86.798 68.5503 87.3555 68.5503 88.4704C68.5503 89.3067 67.714 90.1429 66.8778 90.1429Z" fill="#E6236D" />
        <path d="M56.5643 90.143C55.7281 90.143 54.8918 89.5855 54.8918 88.4706V78.157C54.8918 77.3207 55.4493 76.4845 56.5643 76.4845C57.4006 76.4845 58.2368 77.042 58.2368 78.157V88.4706C58.2368 89.3068 57.4006 90.143 56.5643 90.143Z" fill="#E6236D" />
        <path d="M97.5401 90.1428H81.9303C79.4216 90.1428 77.1917 88.1916 77.1917 85.4041V57.5296C77.1917 55.0209 79.1429 52.7909 81.9303 52.7909H97.5401C100.049 52.7909 102.279 54.7421 102.279 57.5296V85.4041C102 88.1916 100.049 90.1428 97.5401 90.1428ZM81.9303 56.1358C81.0941 56.1358 80.2579 56.6933 80.2579 57.8083V85.6829C80.2579 86.5191 80.8153 87.3554 81.9303 87.3554H97.5401C98.3763 87.3554 99.2126 86.7979 99.2126 85.6829V57.8083C99.2126 56.9721 98.6551 56.1358 97.5401 56.1358H81.9303V56.1358Z" fill="#E6236D" />
        <path d="M59.0726 70.6308C59.0726 72.0245 57.9576 73.1395 56.5639 73.1395C55.1702 73.1395 54.0552 72.0245 54.0552 70.6308C54.0552 69.2371 55.1702 68.1221 56.5639 68.1221C57.9576 68.1221 59.0726 69.2371 59.0726 70.6308Z" fill="#E6236D" />
        <path d="M92.2437 80.6656C92.2437 82.0593 91.1288 83.1743 89.735 83.1743C88.3413 83.1743 87.2263 82.0593 87.2263 80.6656C87.2263 79.2718 88.3413 78.1569 89.735 78.1569C91.1288 78.1569 92.2437 79.2718 92.2437 80.6656Z" fill="#E6236D" />
        <path d="M89.7352 44.1499H23.6725C22.5575 44.1499 22 43.3136 22 42.4774C22 41.6412 22.5575 40.8049 23.6725 40.8049H89.7352C90.5714 40.8049 91.4077 41.3624 91.4077 42.4774C91.1289 43.3136 90.5714 44.1499 89.7352 44.1499Z" fill="#E6236D" />
    </g>
    <defs>
        <clipPath id="clip0">
            <rect width="80" height="57.1429" fill="white" transform="translate(22 33)" />
        </clipPath>
    </defs>
</svg>
