<svg width="124" height="124" viewBox="0 0 124 124" fill="none" xmlns="http://www.w3.org/2000/svg">
<path d="M60.8615 65.587H52.0339C51.2063 65.587 50.3787 65.0353 50.3787 63.9318C50.3787 63.1042 50.9304 62.2766 52.0339 62.2766H60.8615C61.6891 62.2766 62.5167 62.8283 62.5167 63.9318C62.2409 65.0353 61.6891 65.587 60.8615 65.587Z" fill="#E6236D"/>
<path d="M44.5861 65.587H39.0688C38.2412 65.587 37.4136 65.0353 37.4136 63.9318C37.4136 62.8283 37.9653 62.2766 39.0688 62.2766H44.5861C45.4137 62.2766 46.2413 62.8283 46.2413 63.9318C46.2413 65.0353 45.4137 65.587 44.5861 65.587Z" fill="#E6236D"/>
<path d="M70.7929 53.4491H66.6549C65.8274 53.4491 64.9998 52.8973 64.9998 51.7939C64.9998 50.9663 65.5515 50.1387 66.6549 50.1387H70.7929C71.6205 50.1387 72.4481 50.6904 72.4481 51.7939C72.1722 52.6215 71.6205 53.4491 70.7929 53.4491Z" fill="#E6236D"/>
<path d="M57.8276 53.4491H39.0688C38.2412 53.4491 37.4136 52.8973 37.4136 51.7939C37.4136 50.9663 37.9653 50.1387 39.0688 50.1387H57.8276C58.6552 50.1387 59.4828 50.6904 59.4828 51.7939C59.2069 52.6215 58.6552 53.4491 57.8276 53.4491Z" fill="#E6236D"/>
<path d="M70.7942 41.0351H58.6562C57.8286 41.0351 57.001 40.4834 57.001 39.3799C57.001 38.5523 57.5527 37.7247 58.6562 37.7247H70.7942C71.6218 37.7247 72.4494 38.2765 72.4494 39.3799C72.1736 40.4834 71.6218 41.0351 70.7942 41.0351Z" fill="#E6236D"/>
<path d="M51.2068 41.0351H39.0688C38.2412 41.0351 37.4136 40.4834 37.4136 39.3799C37.4136 38.5523 37.9653 37.7247 39.0688 37.7247H51.2068C52.0344 37.7247 52.862 38.2765 52.862 39.3799C52.5862 40.4834 52.0344 41.0351 51.2068 41.0351Z" fill="#E6236D"/>
<path d="M48.4494 69.4486C45.6908 69.4486 43.208 66.9658 43.208 64.2071C43.208 61.4485 45.6908 58.9657 48.4494 58.9657C51.2081 58.9657 53.6909 61.4485 53.6909 64.2071C53.6909 66.9658 51.2081 69.4486 48.4494 69.4486ZM48.4494 62.0002C47.346 62.0002 46.2425 63.1037 46.2425 64.2071C46.2425 65.3106 47.346 66.4141 48.4494 66.4141C49.5529 66.4141 50.6564 65.3106 50.6564 64.2071C50.6564 63.1037 49.5529 62.0002 48.4494 62.0002Z" fill="#E6236D"/>
<path d="M61.4143 57.0348C58.6556 57.0348 56.1729 54.552 56.1729 51.7933C56.1729 49.0347 58.6556 46.5519 61.4143 46.5519C64.1729 46.5519 66.6557 49.0347 66.6557 51.7933C66.6557 54.8278 64.4488 57.0348 61.4143 57.0348ZM61.4143 49.5864C60.3108 49.5864 59.2074 50.6899 59.2074 51.7933C59.2074 52.8968 60.3108 54.0002 61.4143 54.0002C62.5177 54.0002 63.6212 52.8968 63.6212 51.7933C63.6212 50.6899 62.7936 49.5864 61.4143 49.5864Z" fill="#E6236D"/>
<path d="M54.7942 44.8966C52.0355 44.8966 49.5527 42.4138 49.5527 39.6551C49.5527 36.8965 52.0355 34.4137 54.7942 34.4137C57.5528 34.4137 60.0356 36.8965 60.0356 39.6551C60.0356 42.4138 57.8287 44.8966 54.7942 44.8966ZM54.7942 37.4482C53.6907 37.4482 52.5873 38.5517 52.5873 39.6551C52.5873 40.7586 53.6907 41.8621 54.7942 41.8621C55.8976 41.8621 57.0011 40.7586 57.0011 39.6551C57.0011 38.5517 56.1735 37.4482 54.7942 37.4482Z" fill="#E6236D"/>
<path d="M43.483 79.3799C43.2071 79.3799 42.9312 79.3799 42.9312 79.3799C31.8966 74.4144 25 63.6556 25 51.7934C25 35.5174 38.5174 22 54.7934 22C71.3453 22 84.5868 35.5174 84.5868 51.7934C84.5868 52.621 84.0351 53.4486 82.9317 53.4486C82.1041 53.4486 81.2765 52.8969 81.2765 51.7934C81.2765 36.8967 69.1384 25.0345 54.5176 25.0345C39.6208 25.0345 27.7587 37.1726 27.7587 51.7934C27.7587 62.2763 34.1035 71.9316 43.7588 76.3454C44.5864 76.6213 44.8623 77.7247 44.5864 78.2765C44.5864 79.1041 44.0347 79.3799 43.483 79.3799Z" fill="#E6236D"/>
<path d="M54.7926 81.8625C53.965 81.8625 53.1375 81.3108 53.1375 80.2073V75.7935C53.1375 75.2417 53.4133 74.69 54.2409 74.4141L59.2065 72.7589C59.4823 72.2072 59.4823 71.6555 59.7582 71.3796L57.5513 66.414C57.2754 65.8623 57.2754 65.0347 57.8272 64.7589L61.6893 60.8967C62.241 60.345 62.7927 60.345 63.3445 60.6209L68.31 62.8278H68.5859C69.1376 62.5519 69.4135 62.5519 69.9652 62.2761L71.6204 57.3105C71.8963 56.7588 72.448 56.207 72.9997 56.207H78.517C79.0688 56.207 79.6205 56.4829 79.8964 57.3105L81.8274 62.8278C82.1033 63.1037 82.1033 63.3795 82.1033 63.6554C82.1033 64.483 81.5515 65.3106 80.4481 65.3106C80.1722 65.3106 79.8964 65.3106 79.6205 65.0347C79.3446 64.7589 79.0688 64.483 78.7929 64.2071L77.1377 59.5174H73.8273L72.1721 64.2071C71.8963 64.7589 71.6204 65.0347 71.0687 65.0347C70.5169 65.3106 69.9652 65.3106 69.4135 65.5864C69.1376 65.5864 68.8618 65.8623 68.8618 65.8623H68.5859C68.0342 66.1382 67.7583 66.1382 67.2066 65.8623L62.5169 63.6554L60.8617 66.1382L63.0686 70.552C63.3445 71.1037 63.3445 71.3796 63.0686 71.9313C62.5169 72.7589 62.241 73.5865 61.9651 74.4141C61.6893 74.9659 61.4134 75.2417 61.1375 75.5176L56.4478 77.1728V80.4832C56.4478 81.0349 55.6202 81.8625 54.7926 81.8625Z" fill="#E6236D"/>
<path d="M78.7936 101.173H73.2763C72.7246 101.173 72.1729 100.897 71.897 100.069L70.2418 95.1038C69.6901 94.8279 69.1384 94.8279 68.8625 94.552L63.6211 97.0348C63.0693 97.3107 62.2417 97.3107 61.9659 96.759L58.1038 92.621C57.552 92.0693 57.552 91.5175 57.8279 90.9658L60.0348 86.0002C59.759 85.4485 59.4831 84.8968 59.4831 84.6209L54.5175 82.9657C53.9658 82.6898 53.4141 82.1381 53.4141 81.5864V76.0691C53.4141 75.5174 53.6899 74.9656 54.5175 74.6898L59.4831 73.0346C59.759 72.4828 59.759 71.9311 60.0348 71.6552L57.8279 66.6897C57.552 66.1379 57.552 65.3103 58.1038 65.0345L61.9659 61.1724C62.5176 60.6206 63.0693 60.6206 63.6211 60.8965L68.5866 63.1034H68.8625C69.4142 62.8276 69.6901 62.8276 70.2418 62.5517L71.897 57.5861C72.1729 57.0344 72.7246 56.4827 73.2763 56.4827H78.7936C79.3454 56.4827 79.8971 56.7585 80.173 57.5861L81.8282 62.5517C82.3799 62.8276 82.6558 62.8276 83.2075 63.1034L88.1731 60.8965C88.7248 60.6206 89.5524 60.6206 89.8282 61.1724L93.6904 65.0345C94.2421 65.5862 94.2421 66.1379 93.9662 66.6897L91.7593 71.6552C92.0352 72.207 92.311 72.4828 92.311 73.0346L97.2766 74.6898C97.8283 74.9656 98.3801 75.5174 98.3801 76.0691V81.5864C98.3801 82.1381 98.1042 82.6898 97.2766 82.9657L92.311 84.6209C92.0352 85.1726 92.0352 85.7244 91.7593 86.0002L93.9662 90.6899C94.2421 91.2417 94.2421 92.0693 93.6904 92.3451L89.8282 96.2072C89.2765 96.759 88.7248 96.759 88.1731 96.4831L83.2075 94.2762C82.6558 94.552 82.104 94.8279 81.8282 94.8279L80.173 100.345C79.8971 100.897 79.3454 101.173 78.7936 101.173ZM74.3798 98.1383H77.6902L79.3454 93.4486C79.6212 92.8969 79.8971 92.621 80.4488 92.621C81.2764 92.3451 82.104 92.0693 82.9316 91.5175C83.4833 91.2417 83.7592 91.2417 84.3109 91.5175L88.4489 93.7245L90.9317 91.2417L88.7248 86.8278C88.4489 86.2761 88.4489 86.0002 88.7248 85.4485C89.0006 84.6209 89.5524 84.0692 89.8282 82.9657C90.1041 82.414 90.38 82.1381 90.6558 82.1381L95.3455 80.4829V77.1725L90.6558 75.5174C90.1041 75.2415 89.8282 74.9656 89.8282 74.6898C89.5524 73.8622 89.2765 73.0346 88.7248 72.207C88.4489 71.6552 88.4489 71.3794 88.7248 70.8277L90.9317 66.4138L88.4489 63.6552L84.0351 65.8621C83.4833 66.1379 83.2075 66.1379 82.6558 65.8621C81.8282 65.3103 81.0006 65.0345 80.173 64.7586H79.8971C79.6212 64.4828 79.3454 64.2069 79.0695 63.931L77.4143 59.2413H74.1039L72.4487 63.931C72.1729 64.4828 71.897 64.7586 71.3453 64.7586C70.7936 65.0345 70.2418 65.0345 69.6901 65.3103C69.4142 65.3103 69.1384 65.5862 69.1384 65.5862H68.8625C68.3108 65.8621 68.0349 65.8621 67.4832 65.5862L62.7935 63.3793L60.8624 66.1379L63.0693 70.5518C63.3452 71.1035 63.3452 71.3794 63.0693 71.9311C62.5176 72.7587 62.2417 73.5863 61.9659 74.4139C61.69 74.9656 61.4141 75.2415 61.1383 75.5174L56.4486 77.1725V80.4829L61.1383 82.1381C61.69 82.414 61.9659 82.6899 61.9659 83.2416C62.2417 84.0692 62.5176 84.8968 63.0693 85.7244C63.3452 86.2761 63.3452 86.552 63.0693 87.1037L60.8624 91.2417L63.3452 93.7245L67.759 91.5175C68.3108 91.2417 68.5866 91.2417 69.1384 91.5175C69.966 92.0693 70.7936 92.3451 71.6212 92.621C72.1729 92.8969 72.4487 93.1727 72.7246 93.4486L74.3798 98.1383ZM76.035 88.2071C70.7936 88.2071 66.3797 83.7933 66.3797 78.5519C66.3797 78.0001 66.3797 77.1725 66.6556 76.6208C67.4832 72.207 71.6212 69.1725 76.035 69.1725H76.3109C81.5523 69.4483 85.6903 73.5863 85.6903 78.8277C85.6903 84.0692 81.2764 88.2071 76.035 88.2071ZM76.035 72.207C73.0005 72.207 70.2418 74.4139 69.6901 77.4484C69.6901 78.0001 69.4142 78.276 69.4142 78.8277C69.4142 82.414 72.4487 85.4485 76.035 85.4485C79.6212 85.4485 82.6558 82.414 82.6558 78.8277C82.6558 75.2415 79.6212 72.207 76.035 72.207Z" fill="#E6236D"/>
</svg>
