<svg xmlns="http://www.w3.org/2000/svg" xmlns:xlink="http://www.w3.org/1999/xlink" viewBox="0 0 46 66" fill="#fff" fill-rule="evenodd" stroke="#000" stroke-linecap="round" stroke-linejoin="round"><use xlink:href="#A" x=".5" y=".5"/><symbol id="A" overflow="visible"><path d="M13.899 41.828a7.96 7.96 0 1 1 15.92.009 7.96 7.96 0 1 1-15.92.009m30.804-.376V0H33.797v22.536A22.32 22.32 0 0 0 1.32 49.239 22.32 22.32 0 0 0 22.385 64a22.05 22.05 0 0 0 5.972-.833c.068-.012.135-.029.2-.05V54.3a5.39 5.39 0 0 1-1.149.708c-1.762.784-3.676 1.168-5.604 1.124a13.43 13.43 0 0 1-9.991-4.163c-5.36-5.743-5.323-14.666.083-20.365a13.81 13.81 0 0 1 10.199-4.166c2.065 0 6.228.55 8.784 2.564 2.348 1.857 4.87 4.563 4.787 11.656l.05 17.858c.375-.25.73-.53 1.066-.833 4.864-4.094 7.745-10.072 7.916-16.427v-.8" stroke="none" fill="#0075c9" fill-rule="nonzero"/></symbol></svg>