<svg xmlns="http://www.w3.org/2000/svg" xmlns:xlink="http://www.w3.org/1999/xlink" viewBox="0 0 73.587 85" fill="#fff" fill-rule="evenodd" stroke="#000" stroke-linecap="round" stroke-linejoin="round"><use xlink:href="#A" x="2.164" y="2.5"/><symbol id="A" overflow="visible"><g fill="#172b4d" stroke="none"><path d="M34.63 0v.001V0C15.566 0 0 5.128 0 11.496c0 1.677 4.157 25.726 5.806 35.263.739 4.277 11.785 10.548 28.815 10.548l.018-.051v.051c17.029 0 28.075-6.271 28.814-10.548l5.806-35.263C69.259 5.129 53.693 0 34.63 0zm0 49.581c-6.079 0-11.008-4.932-11.008-11.015S28.55 27.551 34.63 27.551s11.008 4.931 11.008 11.015S40.71 49.581 34.63 49.581zm-.006-34.532c-12.248-.02-22.174-2.149-22.17-4.757s9.937-4.706 22.186-4.686 22.174 2.149 22.17 4.757-9.937 4.705-22.186 4.686zm24.895 41.269c-.526 0-.948.373-.948.373s-8.528 6.757-23.941 6.758-23.941-6.758-23.941-6.758-.422-.373-.948-.373c-.629 0-1.225.423-1.225 1.356a1.59 1.59 0 0 0 .028.293l2.46 12.884C12.16 76.065 22.353 80 34.629 80h0 .001.001 0c12.277-.001 22.47-3.935 23.625-9.15.17-.766 1.137-5.795 2.46-12.884a1.59 1.59 0 0 0 .028-.293c0-.933-.597-1.356-1.225-1.356z"/><ellipse cx="34.619" cy="38.563" rx="5.517" ry="5.52"/></g></symbol></svg>