<svg xmlns="http://www.w3.org/2000/svg" xmlns:xlink="http://www.w3.org/1999/xlink" viewBox="0 0 67.973 67.973" fill="#fff" fill-rule="evenodd" stroke="#000" stroke-linecap="round" stroke-linejoin="round"><use xlink:href="#C" x="1.487" y="1.487"/><defs><radialGradient id="A" cx="50%" cy="51%" r="50%" fx="50%" fy="51%"><stop offset="0%" stop-color="#797979"/><stop offset="100%" stop-color="#4c4c4c"/></radialGradient><path id="B" d="M21.334 26.188a11.16 11.16 0 0 1 11.181-11.181 11.16 11.16 0 0 1 11.181 11.181 11.16 11.16 0 0 1-11.181 11.181 11.16 11.16 0 0 1-11.181-11.181z"/></defs><symbol id="C" overflow="visible"><g stroke="none" fill-rule="nonzero"><path d="M.149 32.075A31.86 31.86 0 0 1 32.075.149a31.86 31.86 0 0 1 31.926 31.926 31.86 31.86 0 0 1-31.926 31.926A31.86 31.86 0 0 1 .149 32.075z" fill="#f4b960"/><path d="M0 28.837C0 12.862 12.861 0 28.837 0s28.837 12.862 28.837 28.837-12.861 28.837-28.837 28.837S0 44.813 0 28.837z" fill="#e66f32"/><path d="M7.798 25.16A24.96 24.96 0 0 1 32.809.149 24.96 24.96 0 0 1 57.82 25.16a24.96 24.96 0 0 1-25.011 25.011A24.96 24.96 0 0 1 7.798 25.16z" fill="#e43c41"/><path d="M11.77 27.071c0-12.715 10.236-22.951 22.951-22.951s22.951 10.236 22.951 22.951-10.236 22.951-22.951 22.951S11.77 39.786 11.77 27.071z" fill="#bdd041"/><path d="M11.77 28.838A21.29 21.29 0 0 1 33.104 7.504a21.29 21.29 0 0 1 21.334 21.334 21.29 21.29 0 0 1-21.334 21.334A21.29 21.29 0 0 1 11.77 28.838z" fill="#6db54c"/><path d="M11.918 25.306c0-9.862 7.94-17.802 17.802-17.802s17.802 7.94 17.802 17.802-7.94 17.802-17.802 17.802-17.802-7.94-17.802-17.802z" fill="#aedae6"/><path d="M17.508 22.362c0-8.314 6.693-15.007 15.007-15.007s15.007 6.693 15.007 15.007S40.829 37.37 32.515 37.37s-15.007-6.693-15.007-15.007z" fill="#56b8de"/><path d="M21.331 24.423a13.07 13.07 0 0 1 13.096-13.096 13.07 13.07 0 0 1 13.096 13.096 13.07 13.07 0 0 1-13.096 13.096 13.07 13.07 0 0 1-13.096-13.096z" fill="#00b1d5"/><use xlink:href="#B" fill="url(#A)"/><use xlink:href="#B" fill="#221f1f"/><path d="M35.548 25.37c-1.115-.5-1.368-2.34-.567-4.125s2.343-2.82 3.458-2.319 1.368 2.34.567 4.125-2.343 2.82-3.459 2.319z"/></g></symbol></svg>