<svg xmlns="http://www.w3.org/2000/svg" xmlns:xlink="http://www.w3.org/1999/xlink" viewBox="0 0 66.791 66.791" fill="#fff" fill-rule="evenodd" stroke="#000" stroke-linecap="round" stroke-linejoin="round"><use xlink:href="#A" x="1.396" y="1.396"/><symbol id="A" overflow="visible"><path d="M23.424 32.01c0-4.221 3.399-7.62 7.62-7.62s7.62 3.398 7.62 7.62-3.399 7.62-7.62 7.62-7.62-3.399-7.62-7.62zM31.044.011C16.133.011 3.606 10.21.053 24.01a1.56 1.56 0 0 0-.053.38c0 .837.681 1.524 1.524 1.524h12.904c.597.002 1.139-.348 1.382-.893s.02-.036.028-.056c2.66-5.739 8.469-9.722 15.212-9.722 9.259 0 16.764 7.503 16.764 16.761s-7.503 16.761-16.761 16.761c-6.741 0-12.549-3.983-15.212-9.722-.008-.02-.028-.056-.028-.056a1.52 1.52 0 0 0-1.382-.893H1.527c-.843 0-1.524.681-1.524 1.524.001.128.019.256.053.38 3.553 13.8 16.083 23.999 30.991 23.999 17.674-.031 32.027-14.327 32.027-31.999S48.746 0 31.075 0z" stroke="none" fill="#161616" fill-rule="nonzero"/></symbol></svg>