<svg xmlns="http://www.w3.org/2000/svg" xmlns:xlink="http://www.w3.org/1999/xlink" viewBox="0 0 67 67" fill="#fff" fill-rule="evenodd" stroke="#000" stroke-linecap="round" stroke-linejoin="round"><use xlink:href="#A" x="1" y="1"/><symbol id="A" overflow="visible"><g stroke="none" fill="#0080ff" fill-rule="nonzero"><path d="M32.004 63.995v-12.4c13.136 0 23.332-13 18.288-26.836a18.54 18.54 0 0 0-11.066-11.062c-13.824-5.004-26.85 5.15-26.85 18.28H0C0 11.051 20.248-5.267 42.2 1.587c9.6 3.01 17.236 10.626 20.21 20.2 6.86 22-9.434 42.214-30.406 42.214z"/><path d="M19.7 51.629v-12.33h12.336v12.33zm-9.506 9.5v-9.5H19.7v9.5h-9.506zm0-9.5H2.248v-7.94h7.946v7.94z"/></g></symbol></svg>