<svg xmlns="http://www.w3.org/2000/svg" xmlns:xlink="http://www.w3.org/1999/xlink" viewBox="0 0 66.711 41.711" fill="#fff" fill-rule="evenodd" stroke="#000" stroke-linecap="round" stroke-linejoin="round"><use xlink:href="#A" x=".856" y=".856"/><symbol id="A" overflow="visible"><g stroke="none"><g fill="#02303a"><path d="M62.85 16.297c1.429-3.342 1.403-6.614.513-9.218-1.083-3.205-5.53-7.397-6.957-5.737-.185.231-2.743-.068-3.157.484-.599.804-.253 1.061.046 1.335.898.804 3.203 1.682 4.216 4.401.438 1.152 1.451 3.85-.299 5.462-2.004 1.819-4.24 2.235-13.412-6.292-9.753-9.103-22.905-5.39-27.238-3.963-4.355 1.451-6.336 2.88-4.632 6.246 2.327 4.562 1.567 3.157 3.824 6.913 3.594 5.989 11.453-2.765 11.453-2.765-5.852 8.826-10.876 6.682-12.811 3.617-1.711-2.789-3.089-5.989-3.089-5.989C-3.515 16.16.494 39.774.494 39.774h7.358c1.889-8.687 8.595-8.364 9.747 0h5.623c4.962-16.983 15.6 0 15.6 0h6.331c0-9.055-.945-12.466 3.688-13.09 7.928-1.083 11.613-4.791 14.011-10.369z"/><path d="M63.979 10.146a23.03 23.03 0 0 0-3.963.691c-.046.046-.069.092-.115.161-.577.645-1.29 1.29-2.122 1.636a2.11 2.11 0 0 1-.323.161c-.069.068-.137.161-.231.231-2.006 1.821-4.425 2.235-13.412-6.29-9.678-9.172-22.881-5.369-27.238-3.941s-6.336 2.858-4.632 6.222c2.327 4.562 1.567 3.157 3.824 6.913 3.594 5.989 11.453-2.765 11.453-2.765-5.852 8.826-10.876 6.682-12.811 3.617-1.711-2.789-3.089-5.989-3.089-5.989C-3.515 16.161.495 39.774.495 39.774h7.358c1.889-8.687 8.595-8.364 9.747 0h5.623c4.962-16.983 15.6 0 15.6 0h6.331c0-9.055-.945-12.466 3.688-13.09 7.905-1.083 11.591-4.771 13.987-10.37.944-2.142 1.266-4.24 1.152-6.153z"/></g><path d="M37.203 12.52l7.973 2.65c-.254 1.221-2.535 3.572-5.484 2.581-3.871-1.29-2.489-5.231-2.489-5.231z"/><path d="M39.057 15.201c-.116-1.092.7-2.067 1.83-2.187s2.133.662 2.249 1.754-.7 2.067-1.83 2.187-2.133-.662-2.249-1.754zM53.326 3.164c.253.231.577.438.898.645 1.543-1.266 3.525-1.244 5.185-1.934C57.912.493 55.559-.566 54.801.333c-.185.231-1.105.944-1.54 1.497-.599.804-.253 1.061.046 1.335z" fill="#02303a"/></g></symbol></svg>