<svg xmlns="http://www.w3.org/2000/svg" xmlns:xlink="http://www.w3.org/1999/xlink" viewBox="0 0 52 65" fill="#fff" fill-rule="evenodd" stroke="#000" stroke-linecap="round" stroke-linejoin="round"><use xlink:href="#A" x=".5" y=".5"/><symbol id="A" overflow="visible"><path d="M20.423 36.16v12.46c0 2.593.44 4.847 1.323 6.762s2.044 3.506 3.485 4.773 3.06 2.225 4.853 2.873S33.688 64 35.51 64s3.632-.324 5.426-.972 3.412-1.606 4.853-2.873 2.603-2.858 3.485-4.773 1.323-4.17 1.323-6.762V27.86l-16.126-.025-.02 8.325h7.147v12.46c0 2.18-.603 3.786-1.8 4.818s-2.632 1.547-4.28 1.547-3.073-.516-4.28-1.547-1.8-2.637-1.8-4.818V15.38c0-2.18.603-3.786 1.8-4.818s2.632-1.547 4.28-1.547 3.073.516 4.28 1.547 1.8 2.638 1.8 4.818v3.182h9V15.38c0-2.534-.44-4.773-1.323-6.718s-2.044-3.55-3.485-4.818A15.05 15.05 0 0 0 40.938.97C39.146.32 37.333 0 35.51 0s-3.632.324-5.426.972-3.412 1.606-4.853 2.873-2.603 2.873-3.485 4.818-1.323 4.184-1.323 6.718v12.46h-9.207v-9.28h2.824l-7.02-9.92L0 18.561h2.92V32c0 2.298 1.857 4.16 4.15 4.16h13.355z" stroke="none" fill="#2da6b0"/></symbol></svg>