<svg xmlns="http://www.w3.org/2000/svg" xmlns:xlink="http://www.w3.org/1999/xlink" viewBox="0 0 107 42" fill="#fff" fill-rule="evenodd" stroke="#000" stroke-linecap="round" stroke-linejoin="round"><use xlink:href="#A" x=".5" y=".5"/><symbol id="A" overflow="visible"><g stroke="none" fill-rule="nonzero"><path d="M9.055.115l1.1 2.05c.237.37.514.713.824 1.024.913.913 1.782 1.87 2.56 2.895 1.848 2.427 3.095 5.122 3.986 8.04.534 1.782.824 3.608.846 5.456.1 5.523-1.804 10.266-5.634 14.208a16.3 16.3 0 0 1-2.004 1.715c-.38 0-.557-.3-.713-.557-.3-.5-.468-1.047-.557-1.603-.134-.668-.223-1.336-.178-2.027v-.312C9.263 30.937 8.929.272 9.062.116z" fill="#599636"/><path d="M9.055.049c-.045-.1-.1-.022-.134.022.022.445-.134.846-.38 1.225-.267.38-.624.668-.98.98-1.982 1.715-3.54 3.786-4.788 6.102-1.648 3.118-2.516 6.458-2.76 9.977-.1 1.27.4 5.746.802 7.037 1.1 3.43 3.05 6.302 5.6 8.796.624.6 1.292 1.158 1.982 1.692.2 0 .223-.178.267-.312a6.09 6.09 0 0 0 .2-.869c.2-1.113.312-2.227.445-3.34L9.064.059z" fill="#6cac48"/><path d="M10.148 36.861c.045-.512.3-.935.557-1.358-.267-.1-.468-.334-.624-.58-.134-.223-.245-.5-.334-.735-.312-.935-.38-1.915-.468-2.873v-.58c-.1.1-.134.846-.134.958-.067 1.024-.2 2.027-.4 3.006-.067.4-.1.802-.356 1.158a.41.41 0 0 0 .022.156c.4 1.18.512 2.383.58 3.608v.445c0 .534-.022.423.423.6.178.067.38.1.557.223.134 0 .156-.1.156-.2l-.067-.735v-2.05c-.022-.356.045-.713.1-1.047z" fill="#c2bfbf"/><path d="M27.058 27.547v2.12c-.003.084.002.168.014.251.028.25.182.404.408.475.212.056.426.098.643.126.126.014.167.07.182.204.014.475-.028.53-.488.502-1.074-.056-2.15-.07-3.224 0h-.102c-.335.014-.362-.014-.362-.35 0-.056.014-.126.014-.182 0-.102.07-.153.167-.153.225-.028.433-.084.643-.126.293-.07.46-.25.488-.544.04-.32.04-.656.04-.977l.014-3.74a.57.57 0 0 0-.306-.531 3.97 3.97 0 0 0-.796-.335c-.084-.028-.167-.04-.237-.084-.204-.098-.21-.28-.014-.39a.71.71 0 0 1 .237-.084 12.68 12.68 0 0 0 2.483-.628c.167-.056.21-.04.225.126.014.102 0 .225-.014.32-.028.182-.028.362-.028.53 0 .07.014.14.084.182s.14 0 .204-.04c.287-.226.59-.431.907-.613.46-.25.95-.475 1.48-.544a2.07 2.07 0 0 1 1.69.502c.202.18.38.387.53.614.14.204.153.21.335.07.53-.39 1.09-.74 1.69-1a2.59 2.59 0 0 1 1.912-.084c.656.237 1.103.697 1.368 1.325.225.502.32 1.02.32 1.562v3.74c0 .25.102.408.35.53.265.102.56.153.837.21.182.04.182.04.182.225-.028.46-.07.488-.517.46a30.04 30.04 0 0 0-3.363 0c-.225.014-.225.014-.237-.21v-.07c-.014-.378-.014-.378.35-.46l.362-.098a.56.56 0 0 0 .433-.544l.04-1.047-.028-2.735a2.15 2.15 0 0 0-.153-.712c-.35-.852-1.116-1.158-1.856-1.074-.56.056-1.047.28-1.507.6-.098.07-.167.153-.153.293.126.893.04 1.787.056 2.68v1.94c0 .35.14.517.475.6l.643.14c.098.014.153.056.153.167v.102c-.014.39-.04.408-.433.404-1.116-.056-2.233-.04-3.335 0-.378.014-.408-.028-.39-.408.014-.225.04-.237.25-.28l.46-.084c.408-.084.56-.237.586-.67l.04-.935-.028-2.805c-.028-.35-.102-.684-.293-1.005-.28-.517-.715-.78-1.312-.8-.6-.04-1.13.182-1.634.46-.35.204-.502.446-.475.852v2.044zm26.29.085V29.6c.002.14.01.28.028.42a.43.43 0 0 0 .335.391c.24.07.49.112.74.126.14.014.167.07.182.182v.098c-.014.488-.07.544-.544.517a26.81 26.81 0 0 0-3.182 0l-.408.014c-.084 0-.102-.04-.126-.098a1.42 1.42 0 0 1 0-.586c.014-.084.07-.102.153-.126l.572-.102c.35-.084.475-.225.488-.586l.04-1.172v-3.433a.52.52 0 0 0-.32-.517c-.25-.14-.517-.237-.796-.335-.084-.028-.167-.056-.237-.098-.182-.126-.204-.306-.028-.446a.5.5 0 0 1 .279-.112c.893-.14 1.758-.335 2.596-.67.098-.04.14-.014.182.07a.46.46 0 0 1 .04.28l-.04.656c0 .084-.04.204.028.237.084.056.14-.07.21-.102a6.22 6.22 0 0 1 1.354-.865c.433-.204.878-.335 1.382-.306.935.056 1.605.53 2.037 1.354.225.433.32.907.362 1.396l.04 1.02.014 3.084c.014.237.098.39.335.475a4.55 4.55 0 0 0 .754.182c.225.028.237.07.25.28v.07c-.028.475-.056.488-.53.46-1.04-.056-2.085-.056-3.126 0-.14.014-.28 0-.408.014-.084 0-.14-.014-.153-.098-.028-.182-.056-.362-.014-.56.014-.084.056-.126.153-.14l.643-.102c.225-.056.35-.204.378-.408l.028-.39-.014-2.916a4.91 4.91 0 0 0-.084-1.005c-.167-.715-.712-1.225-1.45-1.297-.643-.07-1.225.098-1.758.446a.77.77 0 0 0-.378.697v2.108c0-.04 0-.04.014-.04z" fill="#47474a"/><path d="M94.221 23.68c-.153-1.02-.53-1.926-1.187-2.72a5.38 5.38 0 0 0-2.149-1.591c-.878-.362-1.815-.475-2.763-.502-.39-.014-5.72.07-6.112 0-.098-.014-.167.014-.225.098-.07.102-.14.21-.182.32-.167.378-.167.35.237.404.335.056.656.084.977.182.293.098.502.265.572.586.028.153.056 5.065.056 7.354l-.056 1.634c-.014.126-.028.25-.07.362-.056.167-.153.306-.32.378-.184.087-.383.14-.586.153-.378.04-.433.056-.56.475l-.04.153c-.028.182-.014.21.167.21l4.172.04 1.634-.028 1.13-.14a7.03 7.03 0 0 0 3.404-1.618 5.79 5.79 0 0 0 1.34-1.758c.39-.78.56-1.634.6-2.498.07-.488.04-1-.04-1.493zm-2.024 1.98c-.056.893-.237 1.758-.697 2.54-.586 1.02-1.423 1.73-2.58 1.98-.502.102-1.005.153-1.532.084-.378-.04-.74-.084-1.09-.21-.628-.225-.852-.613-.865-1.225l-.014-8.414c0-.502.225-.613.586-.628a9.44 9.44 0 0 1 1.647.028c.579.056 1.148.193 1.689.408.402.168.774.4 1.103.684.754.643 1.256 1.45 1.532 2.4.225.768.265 1.55.225 2.33zm13.622 1.368c0-.084 0-.153-.014-.237-.126-.768-.53-1.354-1.158-1.8-.404-.293-.865-.488-1.34-.628-.084-.028-.153-.056-.237-.07.014-.07.056-.084.098-.098.28-.14.544-.293.78-.502a2.62 2.62 0 0 0 .865-1.354c.084-.293.084-.586.056-.893a2.4 2.4 0 0 0-1.019-1.815c-.643-.475-1.396-.67-2.177-.684-1.507-.028-3.028 0-4.534 0-.433 0-.865.028-1.312-.04-.084-.014-.204-.04-.265.056-.102.182-.225.362-.265.572-.014.098.014.153.126.167l.963.14c.378.056.643.265.67.6.028.231.041.464.041.697l-.028 2.61-.014 5.163c0 .306-.04.6-.098.907a.51.51 0 0 1-.362.419c-.28.084-.544.167-.837.167-.16-.015-.312.083-.362.237a1.87 1.87 0 0 0-.126.39c-.028.167.014.225.182.204.126-.014 4.73.098 5.596.014.517-.056 1.02-.126 1.535-.28.878-.28 1.69-.684 2.33-1.368.53-.56.837-1.228.865-2 .04-.182.04-.362.04-.56zm-6.768-5.718l.04-1.116c0-.21.084-.306.293-.35.335-.07.67-.04 1.005-.028.335.028.656.07 1 .167.613.182 1.09.53 1.368 1.116a2 2 0 0 1 .195.852c.014.39-.014.768-.167 1.144-.237.517-.613.852-1.158.95s-2.093.056-2.33.056c-.21 0-.225-.028-.225-.237V22.55c-.033-.41-.038-.82-.014-1.228zm4.534 7.507a2.14 2.14 0 0 1-1.284 1.297c-.335.126-.67.204-1.02.182-.433-.014-.865 0-1.297-.084-.586-.126-.852-.684-.893-1.09-.07-.712-.028-1.438-.04-1.968v-1.842c0-.225.028-.293.265-.293l1.312.014.893.102c.628.14 1.2.378 1.647.865a2.25 2.25 0 0 1 .6 1.382c.04.488.014.963-.167 1.423z" fill="#c2bfbf"/><path d="M68.128 24.616l.362.056c.39.014.852-.126 1-.67a1.41 1.41 0 0 0 0-.796c-.084 0-.126.07-.167.098a1.34 1.34 0 0 1-.697.293c-.502.056-1.005.028-1.493-.153l-.684-.237a4.04 4.04 0 0 0-1.48-.194c-.712.056-1.382.293-2 .628-.67.362-1.144.907-1.368 1.647-.126.433-.14.878-.084 1.325.14 1.02.67 1.73 1.618 2.108.056.014.098.04.153.056.126.07.14.14.028.237l-.35.237-.837.517c-.21.126-.237.225-.167.446a1.46 1.46 0 0 0 .446.67 2.33 2.33 0 0 0 .642.391c.153.07.153.102.014.225l-.796.572c-.265.204-.53.408-.754.67a1.38 1.38 0 0 0-.335 1.256 2.36 2.36 0 0 0 .725 1.256 2.96 2.96 0 0 0 1.284.697c.78.225 1.59.237 2.386.084 1.144-.21 2.144-.715 2.93-1.577.544-.572.865-1.242.893-2.042a1.96 1.96 0 0 0-1.507-2.037l-.754-.14-2.303-.204c-.25-.014-.502-.056-.712-.182-.265-.167-.335-.488-.167-.697.126-.153.28-.25.475-.265l.446-.04c.882-.1 1.71-.467 2.358-1.074a2.47 2.47 0 0 0 .712-1.187 3.72 3.72 0 0 0 .028-1.838c-.04-.153-.028-.167.167-.14zm-3.42 6.95c.084.014.167 0 .25 0 .586.028 1.187.07 1.758.225.187.055.37.125.544.21.56.306.768.837.697 1.41-.084.628-.433 1.074-.977 1.368-.362.204-.768.293-1.187.335-.153.014-.293 0-.446 0-.488.014-.963-.04-1.423-.237a2.2 2.2 0 0 1-.823-.559c-.488-.488-.715-1.382.014-2.108.446-.408.95-.697 1.59-.643zm1.59-4.354c-.293.74-.935.963-1.577.865-.586-.084-1.02-.404-1.297-.935a3 3 0 0 1-.25-2.22c.153-.572.502-1.005 1.116-1.103.78-.14 1.532.14 1.926.92.204.378.293.837.293 1.493-.014.265-.07.628-.21.977zm-17.582-.95c-.126-.754-.404-1.438-.92-2-.768-.852-1.744-1.225-2.847-1.228-.963-.014-1.87.265-2.68.768a3.64 3.64 0 0 0-1.633 2.135c-.237.8-.225 1.634-.04 2.456.488 2.206 2.19 3.153 4.227 3.014.6-.04 1.172-.237 1.715-.502.8-.378 1.396-.977 1.8-1.773.32-.656.46-1.354.446-2.15l-.07-.712zm-1.98 3.098c-.204.642-.768 1.102-1.438 1.172-.613.084-1.187-.07-1.702-.433a2.9 2.9 0 0 1-.879-1.047c-.572-1.172-.67-2.4-.378-3.656.094-.39.297-.742.586-1.02.517-.475 1.116-.586 1.787-.446.643.14 1.13.488 1.532 1.02s.586 1.144.697 1.787c.056.32.056.656.07.865 0 .67-.056 1.225-.265 1.758zm32.472-2.985c-.102-.8-.404-1.55-.977-2.163-.754-.823-1.73-1.172-2.818-1.187-.935-.014-1.8.25-2.596.712-.893.53-1.507 1.284-1.744 2.303a4.87 4.87 0 0 0 .335 3.321c.46.977 1.242 1.605 2.275 1.884 1.144.306 2.233.167 3.293-.35.92-.446 1.577-1.144 1.953-2.093.225-.56.306-1.158.32-1.856.014-.126-.014-.35-.04-.572zm-1.926 2.805c-.225.754-.697 1.242-1.493 1.354-.586.084-1.144-.056-1.647-.39-.433-.293-.74-.684-.963-1.144-.25-.488-.39-1.005-.446-1.535-.084-.656-.084-1.297.07-1.953.029-.13.072-.256.126-.377.39-.977 1.256-1.423 2.275-1.2.684.153 1.2.53 1.59 1.103.378.56.56 1.172.643 1.838a3.74 3.74 0 0 1 .04.78c0 .544-.04 1.047-.204 1.535z" fill="#47474a"/></g></symbol></svg>