<svg xmlns="http://www.w3.org/2000/svg" xmlns:xlink="http://www.w3.org/1999/xlink" viewBox="0 0 57.09 64.181" fill="#fff" fill-rule="evenodd" stroke="#000" stroke-linecap="round" stroke-linejoin="round"><use xlink:href="#A" x=".5" y=".59"/><symbol id="A" overflow="visible"><g stroke="none" fill-rule="nonzero"><path d="M53.479 28.475c0 14.769-11.971 26.739-26.739 26.739S0 43.244 0 28.475 11.971 1.736 26.739 1.736c14.769-.014 26.74 11.971 26.74 26.739" fill="#008dc2"/><use xlink:href="#C"/><use xlink:href="#C" x="0.364" y="5.869"/><path d="M13.526 31.792a2.14 2.14 0 0 1-2.138 2.138 2.14 2.14 0 0 1-2.138-2.138 2.14 2.14 0 0 1 2.138-2.138c1.179-.013 2.138.946 2.138 2.138m2.928 5.571a2.14 2.14 0 0 1-2.138 2.138 2.14 2.14 0 0 1-2.138-2.138 2.14 2.14 0 0 1 2.138-2.138c1.179-.013 2.138.946 2.138 2.138"/><use xlink:href="#D"/><use xlink:href="#D" x="3.888" y="-4.6"/><use xlink:href="#D" x="-7.383" y="-37.117"/><path d="M26.338 6.06A2.14 2.14 0 0 1 24.2 8.198a2.14 2.14 0 0 1-2.138-2.138A2.14 2.14 0 0 1 24.2 3.922a2.14 2.14 0 0 1 2.138 2.138"/></g><path d="M27.245 22.102A14.22 14.22 0 0 1 41.496 7.851a14.22 14.22 0 0 1 14.251 14.251 14.22 14.22 0 0 1-14.251 14.251 14.22 14.22 0 0 1-14.251-14.251zM10.313 51.16c0-6.459 5.2-11.66 11.66-11.66s11.66 5.2 11.66 11.66-5.2 11.66-11.66 11.66-11.659-5.2-11.659-11.66zM4.599 7.773C4.599 3.467 8.066 0 12.372 0s7.773 3.467 7.773 7.773-3.467 7.773-7.773 7.773-7.773-3.467-7.773-7.773z" fill-rule="nonzero" stroke="#fff" fill="#68b346" stroke-width="1.181"/></symbol><defs ><path id="C" d="M11.85 19.705a2.14 2.14 0 0 1-2.138 2.138 2.14 2.14 0 0 1-2.138-2.138 2.14 2.14 0 0 1 2.138-2.138 2.13 2.13 0 0 1 2.138 2.138"/><path id="D" d="M39.344 45.149a2.14 2.14 0 0 1-2.138 2.138 2.14 2.14 0 0 1-2.138-2.138 2.14 2.14 0 0 1 2.138-2.138 2.14 2.14 0 0 1 2.138 2.138"/></defs></svg>