<svg xmlns="http://www.w3.org/2000/svg" xmlns:xlink="http://www.w3.org/1999/xlink" viewBox="0 0 66.067 60.067" fill="#fff" fill-rule="evenodd" stroke="#000" stroke-linecap="round" stroke-linejoin="round"><use xlink:href="#A" x=".533" y=".533"/><symbol id="A" overflow="visible"><g stroke="none"><g fill="#db212f" fill-rule="nonzero"><path d="M18.586 26.358L8.32 30.098c.131 1.648.427 3.275.815 4.87l9.76-3.555c-.317-1.65-.43-3.352-.299-5.056M64 14.994c-.717-1.478-1.547-2.908-2.507-4.254l-10.274 3.74a19.23 19.23 0 0 1 3.019 4.067z"/><path d="M41.389 12.084c2.074.972 3.954 2.312 5.551 3.954l10.275-3.74c-2.933-4.122-6.886-7.412-11.473-9.547C31.054-4.096 13.531 2.28 6.681 16.966c-2.142 4.584-3.057 9.645-2.654 14.689l10.276-3.739c.171-2.226.715-4.459 1.71-6.596 4.451-9.543 15.834-13.685 25.387-9.235"/></g><path d="M9.763 34.723L0 38.288a29.75 29.75 0 0 0 4.591 9.952l10.253-3.733a19.19 19.19 0 0 1-5.081-9.775" fill="#ea2227" fill-rule="nonzero"/><path d="M52.346 30.861c-.168 2.286-.752 4.522-1.724 6.598-4.451 9.544-15.833 13.685-25.387 9.234a18.89 18.89 0 0 1-5.563-3.947L9.42 46.48c2.839 3.994 6.713 7.332 11.465 9.55 14.688 6.848 32.209.469 39.059-14.217a29.1 29.1 0 0 0 2.644-14.683l-10.24 3.731z" fill="#db212f" fill-rule="nonzero"/><path d="M54.874 18.315l-9.763 3.554c1.813 3.249 2.67 6.99 2.389 10.752l10.253-3.73c-.293-3.68-1.275-7.271-2.88-10.576" fill="#ea2227" fill-rule="nonzero"/></g></symbol></svg>