<svg xmlns="http://www.w3.org/2000/svg" xmlns:xlink="http://www.w3.org/1999/xlink" viewBox="0 0 113 16" fill="#fff" fill-rule="evenodd" stroke="#000" stroke-linecap="round" stroke-linejoin="round"><use xlink:href="#A" x=".5" y=".5"/><symbol id="A" overflow="visible"><path d="M48.147 9.417h7.384l-3.918-6.254-7.158 11.378h-3.24L49.87.912c.377-.527.98-.904 1.733-.904.678 0 1.28.3 1.658.83l8.74 13.638H58.77l-1.507-2.562h-7.46zm33.832 2.487V.074h-2.79v12.96c0 .377.15.678.377.98.3.3.603.452.98.452H93.13l1.658-2.562zm-45.662-2.1c2.713 0 4.822-2.185 4.822-4.822 0-2.713-2.185-4.822-4.822-4.822H24.27v14.392h2.788V2.645h9.117a2.35 2.35 0 0 1 2.336 2.336 2.35 2.35 0 0 1-2.345 2.336h-7.76l8.213 7.158h3.994l-5.576-4.672zm-29.16 4.672C3.163 14.477 0 11.237 0 7.317 0 3.323 3.24.159 7.158.159h8.364c3.994 0 7.158 3.24 7.158 7.158 0 3.994-3.24 7.158-7.158 7.158zm8.213-2.562a4.7 4.7 0 0 0 4.672-4.672A4.7 4.7 0 0 0 15.37 2.57H7.383a4.7 4.7 0 0 0-4.672 4.672 4.7 4.7 0 0 0 4.672 4.672zm52.443 2.562c-3.994 0-7.158-3.24-7.158-7.158 0-3.994 3.24-7.158 7.158-7.158h9.946l-1.658 2.562h-8.138a4.7 4.7 0 0 0-4.672 4.672 4.7 4.7 0 0 0 4.672 4.672h9.946l-1.659 2.561h-8.44zm33.832-2.562a4.62 4.62 0 0 1-4.446-3.4h11.83l1.658-2.562H97.275a4.61 4.61 0 0 1 4.446-3.39h8.138L111.517 0h-9.947c-3.994 0-7.158 3.24-7.158 7.158 0 3.994 3.24 7.158 7.158 7.158h8.515l1.658-2.562h-10.097z" stroke="none" fill="#e30613" fill-rule="nonzero"/></symbol></svg>