<svg xmlns="http://www.w3.org/2000/svg" xmlns:xlink="http://www.w3.org/1999/xlink" viewBox="0 0 87.656 85" fill="#fff" fill-rule="evenodd" stroke="#000" stroke-linecap="round" stroke-linejoin="round"><use xlink:href="#A" x="2.578" y="2.5"/><symbol id="A" overflow="visible"><path d="M64.454 59.818c.565-4.611.396-5.288 3.901-4.541l.89.077c2.696.12 6.222-.425 8.293-1.368 4.459-2.027 7.104-5.412 2.707-4.523-10.03 2.027-10.72-1.3-10.72-1.3C80.117 32.766 84.544 13.221 80.723 8.436 70.299-4.614 52.256 1.557 51.954 1.718l-.096.017c-1.982-.403-4.2-.644-6.691-.683-4.539-.073-7.983 1.166-10.596 3.108 0 0-32.188-12.993-30.691 16.34.318 6.24 9.129 47.217 19.637 34.84 3.841-4.526 7.552-8.352 7.552-8.352 1.843 1.2 4.05 1.812 6.364 1.592l.179-.149a6.7 6.7 0 0 0 .072 1.762c-2.707 2.963-1.911 3.484-7.323 4.575-5.475 1.106-2.259 3.074-.159 3.589 2.546.624 8.437 1.508 12.418-3.951l-.159.623c1.062.832.99 5.983 1.141 9.662s.402 7.114 1.168 9.139 1.669 7.239 8.782 5.746c5.944-1.248 10.489-3.044 10.904-19.755" fill="#000" stroke-linecap="butt" stroke-width="6"/><path d="M80.246 49.463c-10.031 2.027-10.721-1.3-10.721-1.3C80.117 32.765 84.544 13.219 80.723 8.435 70.3-4.614 52.256 1.558 51.954 1.718l-.097.017c-1.982-.403-4.2-.643-6.693-.683-4.539-.073-7.982 1.166-10.595 3.107 0 0-32.189-12.992-30.692 16.34.318 6.24 9.129 47.217 19.637 34.84 3.841-4.526 7.552-8.352 7.552-8.352 1.843 1.2 4.05 1.812 6.363 1.592l.18-.149c-.056.562-.03 1.112.072 1.762-2.707 2.963-1.912 3.484-7.323 4.575-5.476 1.106-2.259 3.074-.159 3.589 2.546.624 8.437 1.508 12.417-3.952l-.159.623c1.061.832 1.806 5.414 1.681 9.568s-.208 7.005.628 9.233 1.669 7.239 8.783 5.746c5.944-1.248 9.025-4.483 9.453-9.878.304-3.836.992-3.269 1.036-6.698l.552-1.623c.637-5.199.101-6.877 3.763-6.097l.89.077c2.696.12 6.224-.425 8.294-1.368 4.459-2.027 7.103-5.412 2.707-4.523z" fill="#336791" stroke="none"/><g fill="none" stroke="#fff" stroke-width="2"><path d="M43.048 52.444c-.276 9.675.069 19.417 1.036 21.785s3.036 6.973 10.151 5.48c5.944-1.249 8.107-3.665 9.045-8.998.691-3.924 2.024-14.821 2.195-17.054M34.521 3.943S2.31-8.955 3.808 20.377c.318 6.24 9.129 47.218 19.638 34.841 3.84-4.526 7.313-8.076 7.313-8.076m21.16-45.553c-1.115.343 17.918-6.817 28.734 6.725 3.821 4.784-.607 24.33-11.198 39.728m0-.001s.69 3.329 10.722 1.3c4.395-.889 1.75 2.496-2.708 4.524-3.658 1.663-11.86 2.09-11.994-.209-.345-5.931 4.317-4.129 3.98-5.615-.304-1.338-2.389-2.652-3.768-5.928-1.204-2.859-16.511-24.785 4.245-21.528.76-.154-5.413-19.344-24.838-19.656s-18.784 23.4-18.784 23.4"/><path d="M37.612 50.069c-2.708 2.963-1.911 3.484-7.323 4.575-5.476 1.106-2.259 3.074-.159 3.588 2.546.624 8.437 1.508 12.417-3.953 1.212-1.663-.007-4.315-1.672-4.992-.805-.326-1.88-.736-3.263.78zm-.177-.051c-.273-1.742.584-3.815 1.503-6.241 1.38-3.639 4.565-7.279 2.018-18.824-1.899-8.603-14.637-1.79-14.645-.624s.576 5.912-.213 11.44c-1.029 7.212 4.684 13.312 11.263 12.688m-2.957-24.302c-.057.398.744 1.462 1.79 1.604s1.937-.688 1.994-1.086-.744-.837-1.79-.98-1.938.065-1.993.462zm31.792-.812c.057.398-.744 1.462-1.79 1.604s-1.938-.688-1.995-1.086.746-.837 1.791-.98 1.938.065 1.995.463zm3.736-2.758c.172 3.125-.687 5.254-.795 8.58-.16 4.835 2.353 10.37-1.434 15.911"/></g></symbol></svg>