<svg xmlns="http://www.w3.org/2000/svg" xmlns:xlink="http://www.w3.org/1999/xlink" viewBox="0 0 38 66" fill="#fff" fill-rule="evenodd" stroke="#000" stroke-linecap="round" stroke-linejoin="round"><use xlink:href="#C" x=".5" y=".5"/><defs><linearGradient id="A" x1="0.17%" y1="49.65%" x2="99.82%" y2="49.65%"><stop offset="0%" stop-color="#656565"/><stop offset="100%" stop-color="#010101"/></linearGradient><linearGradient id="B" x1="0.17%" y1="50.05%" x2="99.82%" y2="50.05%"><stop offset="0%" stop-color="#9f1c20"/><stop offset="100%" stop-color="#ed2224"/></linearGradient></defs><symbol id="C" overflow="visible"><g stroke="none"><g fill="url(#A)" fill-rule="nonzero"><path d="M0 24.615s36.923 3.692 36.923 9.846V19.692s0-6.154-36.923-9.846z"/><path d="M0 44.307S36.923 48 36.923 54.153V39.384s0-6.154-36.923-9.846z"/></g><g fill="url(#B)"><path d="M36.923 0v14.769s0 6.154-36.923 9.846V9.846S36.923 6.154 36.923 0" fill-rule="nonzero"/><path d="M0 29.538s36.923-3.692 36.923-9.846v14.769s0 6.154-36.923 9.846z" fill-rule="nonzero"/><path d="M0 64V49.231s36.923-3.692 36.923-9.846v14.769S36.923 60.308 0 64" fill-rule="nonzero"/></g></g></symbol></svg>