<svg xmlns="http://www.w3.org/2000/svg" xmlns:xlink="http://www.w3.org/1999/xlink" viewBox="0 0 49 66" fill="#fff" fill-rule="evenodd" stroke="#000" stroke-linecap="round" stroke-linejoin="round"><style><![CDATA[.B{fill:#dcd9d8}.C{stroke:none}.D{fill:#d33833}.E{fill-rule:nonzero}.F{fill:#231f20}.G{stroke:#d33833}.H{stroke-width:.514}]]></style><use xlink:href="#A" x="1" y="1"/><symbol id="A" overflow="visible"><g class="C"><path d="M45.588 30.806c0 12.68-10.05 22.96-22.446 22.96S.698 43.486.698 30.806s10.048-22.96 22.444-22.96 22.446 10.28 22.446 22.96" class="D"/><g class="E"><path d="M1.61 36.492S-.014 12.55 22.046 11.866L20.506 9.3l-11.972 4-3.4 3.934-2.992 5.73-1.71 6.67.514 4.446" fill="#ef3d3a"/><path d="M7.768 15.166c-3.94 4.03-6.376 9.594-6.376 15.748s2.44 11.72 6.376 15.746 9.37 6.514 15.374 6.514 11.434-2.486 15.374-6.514 6.376-9.594 6.376-15.746-2.44-11.72-6.376-15.748-9.37-6.514-15.374-6.514-11.434 2.466-15.374 6.514zm-.996 32.47C2.586 43.356 0 37.44 0 30.916s2.588-12.44 6.772-16.72 9.976-6.936 16.37-6.934 12.186 2.654 16.37 6.934 6.774 10.196 6.774 16.72-2.588 12.44-6.774 16.72-9.976 6.934-16.37 6.934-12.186-2.654-16.37-6.934" class="F"/></g><path d="M32.59 30.934l-3.4.514-4.6.514-2.992.086-2.908-.086-2.224-.684-1.966-2.14-1.54-4.36-.34-.94-2.052-.684-1.2-1.966-.89-2.822.94-2.48 2.224-.77 1.796.856.856 1.88 1.026-.172.34-.428-.34-1.966-.086-2.48.514-3.4-.02-1.954 1.56-2.492 2.736-1.966L24.808.92l5.3.77 4.6 3.334 2.14 3.4 1.368 2.48.34 6.156-1.026 5.3-1.88 4.7-1.796 2.48" fill="#f0d6b7"/><path d="M29.682 45.726l-12.228.514v2.052l1.026 7.2-.514.6-8.568-2.926-.6-1.026-.856-9.66-1.944-5.814-.428-1.368 6.84-4.7 2.14-.856 1.88 2.308 1.624 1.454 1.88.6.854.256 1.026 4.446.77.94 1.966-.684-1.368 2.65 7.44 3.506-.94.514" fill="#335061"/><path d="M9.398 15.886l2.224-.77 1.796.856.856 1.88 1.026-.172.256-1.026-.514-1.966.514-4.704-.428-2.566 1.54-1.796 3.334-2.65-.94-1.28L14.398 4l-1.966 1.54-1.112 2.394-1.71 2.308-.514 2.736.34 2.908" fill="#6d6b6d"/><path d="M12.922 7.846s1.28-3.164 6.414-4.7.256-1.112.256-1.112l-5.56 2.14-2.14 2.14-.94 1.71 1.966-.172m-2.56 7.434S8.562 9.3 15.404 8.446l-.256-1.026-4.7 1.112-1.368 4.446.34 2.908.94-.6" class="B"/><g fill="#f7e4cd"><path d="M13.094 23.238l1.12-1.084a.72.72 0 0 0 .59.658c.086.6.34 5.986 4 8.894.336.266-2.736-.428-2.736-.428l-2.736-4.276m15.476-5.39s.2-2.592.9-2.392.7.9.7.9-1.696 1.096-1.596 1.496"/><path d="M35.926 12.12s-1.41.3-1.54 1.54 1.54.256 1.796.172m-10.584-1.626s-1.88.256-1.88 1.454 2.14 1.112 2.736.6" class="E"/><path d="M13.948 17.766s-3.25-1.968-3.59-.086-1.112 3.25.514 5.216l-1.112-.34-1.026-2.65-.34-2.566 1.966-2.052 2.224.172 1.28 1.026.086 1.28m1.54-5.388s1.454-7.524 8.808-9c6.054-1.196 9.234.256 10.432 1.624 0 0-5.388-6.412-10.52-4.446s-8.892 5.6-8.812 7.886l.086 3.934m19.84-6.5s-2.48-.086-2.566 2.14a1.72 1.72 0 0 0 .17.684c.103.214 1.968-2.224 3.164-1.026M24.466 8.93s-.426-3.412-3.336-1.428c-1.88 1.28-1.71 3.08-1.368 3.4s.25 1.03.51.56.174-2.012 1.116-2.44 2.48-.906 3.08-.11"/></g><path d="M16.428 32.046l-8.04 3.592s3.334 13.254 1.624 17.36l-1.2-.428-.086-5.046-2.216-9.558-.94-2.65 8.4-5.644 2.48 2.394m.808 7.31l1.14 1.392v5.13H17.03l-.17-4c0-.428.17-1.966.17-1.966m.254 6.734l-3.848.17 1.112.77 2.736.428" fill="#49728b"/><g fill="#335061"><path d="M30.452 45.812l3.164-.086.77 7.868-3.25.428-.684-8.208"/><path d="M31.308 45.812l4.788-.256 1.966-5.216c0-.256 1.71-7.2 1.71-7.2l-3.848-4-.77-.684-2.052 2.052v7.952l-1.796 7.354"/></g><path d="M33.446 45.214l-2.992.6.428 2.394c1.112.514 2.992-.856 2.992-.856m-.344-17.1l5.986 4.446.172-2.052-4.532-4.19-1.624 1.796" fill="#49728b"/><path d="M20.252 62.658l-1.77-7.184-.88-5.3-.146-3.934 8.012-.426h4.986l-.454 9 .77 6.926-.086 1.28-6.5.514-3.934-.856"/><path d="M29.338 45.726s-.428 8.894.856 15.2c0 0-2.566 1.624-6.328 2.052l7.2-.256.856-.514-1.026-14.024-.256-2.994" class="B"/><path d="M34.532 52.91l3.334-.94 6.328-.34.94-2.908-1.71-5.046-1.966-.256-2.736.856-2.626 1.28-1.394-.256-1.086.426"/><path d="M34.472 51.198s2.224-1.026 2.566-.94l-.94-4.704 1.112-.428.77 4.96 5.216.256s1.026-1.966.77-4l.94 2.736.086 1.54-1.368 2.052-1.54.34-2.566-.086-.856-1.112-2.992.428-.94.34" class="B"/><path d="M31.11 45.126l-1.88-4.788-1.966-2.8s.428-1.2 1.026-1.2h1.966l1.88.684-.17 3.164-.856 4.96" class="E"/><path d="M31.478 43.506s-2.394-4.6-2.394-5.3c0 0 .428-1.026 1.026-.77s1.88.94 1.88.94v-1.624l-2.908-.6-1.966.256 3.334 7.868.684.086" class="B"/><path d="M20.998 32.216l-2.368-.26-2.224-.684v.77l1.086 1.2 3.4 1.54" class="E"/><path d="M17.198 32.474s2.65 1.112 3.506.856l.086 1.026-2.394-.512-1.454-1.026.256-.34" class="B"/><path d="M34.522 36.613c-1.45-.04-2.76-.214-3.91-.54.08-.47-.068-.932.05-1.272.32-.23.856-.226 1.34-.28a2.32 2.32 0 0 0-1.488-.168c-.012-.326-.16-.528-.246-.784.816-.292 2.74-2.2 3.824-1.568.516.3.736 2 .776 2.852.034.692-.06 1.392-.346 1.76" class="D"/></g><path d="M34.522 36.613c-1.45-.04-2.76-.214-3.91-.54.08-.47-.068-.932.05-1.272.32-.23.856-.226 1.34-.28a2.32 2.32 0 0 0-1.488-.168c-.012-.326-.16-.528-.246-.784.816-.292 2.74-2.2 3.824-1.568.516.3.736 2 .776 2.852.034.692-.06 1.392-.346 1.76z" fill="none" class="G H"/><path d="M27.584 34.24l-.012.332c-.454.3-1.184.294-1.68.544a4.33 4.33 0 0 1 1.81.46l-.032.83c-.83.568-1.588 1.416-2.566 1.948-.46.252-2.084.9-2.576.786-.28-.064-.304-.41-.414-.736-.236-.7-.8-1.806-.83-2.856-.06-1.326-.194-3.546 1.234-3.274 1.181.251 2.32.667 3.384 1.238.546.3.86.666 1.688.73" class="C D"/><path d="M27.584 34.24l-.012.332c-.454.3-1.184.294-1.68.544a4.33 4.33 0 0 1 1.81.46l-.032.83c-.83.568-1.588 1.416-2.566 1.948-.46.252-2.084.9-2.576.786-.28-.064-.304-.41-.414-.736-.236-.7-.8-1.806-.83-2.856-.06-1.326-.194-3.546 1.234-3.274 1.181.251 2.32.667 3.384 1.238.546.3.86.666 1.688.73z" fill="none" class="G H"/><path d="M28.408 35.822c-.126-.72-.274-.928-.216-1.56 1.926-1.284 2.286 2.204.216 1.56" class="C D"/><path d="M28.408 35.822c-.126-.72-.274-.928-.216-1.56 1.926-1.284 2.286 2.204.216 1.56z" fill="none" class="G H"/><g class="C"><path d="M31.199 36.406s-.6-.856-.172-1.112.856 0 1.112-.428 0-.684.086-1.2.514-.6.94-.684 1.624-.256 1.796.172l-.514-1.54-1.026-.34-3.25 1.88-.172.94v1.88m-7.8 3.252l-.332-4c-.2-1.99.48-1.644 2.204-1.644.264 0 1.6.314 1.72.514.466.952-.8.74.54 1.46 1.112.606 3.076-.368 2.626-1.716-.252-.3-1.31-.094-1.69-.29l-2.004-1.04c-.85-.44-2.814-1.084-3.72-.468-2.296 1.56.144 5.464.964 7.092" fill="#ef3d3a"/><path d="M24.468 8.932c-2.33-.54-3.488.976-4.196 2.55-.63-.152-.4-1.01-.2-1.448.4-1.148 2.1-2.674 3.472-2.468.592.09 1.392.63.944 1.366m11.336 2.634l.11.004c.526 1.094 1 2.254 1.646 3.2-.446 1.036-3.37 1.954-3.326.092.632-.276 1.724-.056 2.286-.41-.324-.89-.792-1.648-.72-2.906m-10.16.068c.5.916.66 1.88 1.372 2.57.32.312.94.692.634 1.56a2 2 0 0 1-.9.75c-1.11.328-3.7.068-2.8-1.316.92.04 2.152.596 2.84-.07-.528-.84-1.466-2.51-1.12-3.492m9.74 9.31c-1.672 1.074-3.536 2.24-6.276 1.972-.586-.508-.808-1.64-.24-2.39.296.508.11 1.446.936 1.586 1.554.266 3.364-.95 4.48-1.376.694-1.17-.06-1.6-.684-2.352-1.28-1.54-2.994-3.452-2.932-5.76.516-.374.56.572.636.744.668 1.56 2.348 3.56 3.574 4.9.3.33.8.646.852.864.16.634-.414 1.392-.348 1.814m-22.06-1.134c-.524-.3-.648-1.616-1.264-1.654-.88-.054-.72 1.71-.716 2.74-.606-.55-.712-2.24-.268-3.11-.506-.248-.734.274-1.014.46.36-2.624 3.84-1.2 3.26 1.566m23.11 2.2c-.8 1.48-1.88 3.112-4.164 3.16-.046-.48-.08-1.206.002-1.494 1.746-.168 2.824-1.056 4.16-1.666m-10.94.96c1.456.766 4.134.848 6.114.79.106.434.104.97.108 1.5-2.546.126-5.554-.5-6.2-2.29m-.28 1.428c1.008 2.53 4.47 2.24 7.39 2.168-.128.328-.408.716-.754.856-.936.4-3.516.67-4.814-.02-.824-.44-1.352-1.428-1.804-2.008-.2-.28-1.304-.996-.016-1" class="F"/><path d="M35.286 38.358l-3.716 5.89c.588-1.728.84-4.6.928-6.828 1.23-.576 2.284.13 2.788.94" fill="#81b0c4"/><path d="M41.646 45.634c-1.324.264-2.254 1.552-3.544 1.468.71-1 1.952-1.4 3.544-1.468m.584 2.072c-1.08.114-2.346.288-3.44.2.52-.792 2.514-.52 3.44-.2m.374 1.784c-1.212.026-2.72.002-3.872-.094.68-.732 3.086-.272 3.872.094" class="F"/><path d="M33.004 54.378c.174 1.52.8 3.066.7 4.732-.67.226-1.056.424-1.954.4l-.196-4.934c.44.03 1.094-.316 1.448-.2" class="B"/><path d="M31.05 31.938c-.608.4-1.128.894-1.712 1.32-1.296.064-2.004-.09-2.956-.834.016-.06.112-.034.114-.106 1.388.6 3.152-.252 4.554-.4" fill="#f0d6b7"/><path d="M23.764 41.398c.4-1.652 1.876-2.508 3.232-3.4 1.4 1.8 2.252 4.06 3.19 6.268-2.216-.668-4.48-1.752-6.4-2.85" fill="#81b0c4"/><path d="M31.558 54.598c-.056 1.35.132 3.52.196 4.934.9.002 1.284-.196 1.954-.4.076-1.668-.528-3.21-.7-4.732-.354-.094-1.006.25-1.448.2zm-13.984-7.68c.592 5.444 1.45 10 3.024 14.84 3.492 1.06 7.7 1.152 10.788.196-.566-2.72-.32-6.034-.65-8.94l-.464-6.606c-3.74-.8-9.026-.2-12.696.504zm13.6-.47c-.032 2.34.104 4.644.284 6.986l2.34-.408c-.27-2.254-.24-4.79-.79-6.784-.64.006-1.2-.008-1.836.206zm4.554-.376c-.426-.1-.92-.004-1.33.004l.8 6.01c.64.02 1-.28 1.51-.384.028-1.756-.154-4.176-1-5.63zm6.896 6.3c1.336-.324 2.174-1.96 1.8-3.64-.25-1.128-.696-3.254-1.174-3.976-.352-.534-1.31-1.234-2.074-.744-1.244.796-3.434 1.028-4.34 1.99.454 1.514.596 3.592.784 5.51 1.554.096 3.464-.428 4.756.128-.9.292-2.072.294-2.85.72.636.308 2.128.246 3.1.01zm-12.416-8.12c-.94-2.206-1.79-4.492-3.19-6.268-1.356.91-2.85 1.766-3.232 3.4 1.94 1.1 4.206 2.2 6.4 2.85zm2.312-6.83c-.088 2.206-.34 5.1-.928 6.828 1.4-1.786 2.534-3.866 3.716-5.89-.504-.808-1.56-1.514-2.788-.94zm-2.6-.932c-.532-.06-1 .61-1.674.32l-.464.536c1.526 1.84 2.2 4.448 3.4 6.608.632-2.076.56-4.35.7-6.616-.868.056-1.35-.786-1.96-.85zm-1.686-2.224c-.056.63.09.836.216 1.56 2.07.648 1.708-2.84-.216-1.56zm-2.296-.754a12.76 12.76 0 0 0-3.384-1.238c-1.428-.274-1.294 1.948-1.234 3.274.048 1.05.594 2.16.83 2.856.112.326.136.67.414.736.492.114 2.114-.534 2.576-.786 1-.534 1.736-1.4 2.566-1.948l.032-.83c-.5-.248-1.076-.426-1.81-.46.5-.25 1.228-.246 1.68-.544l.012-.332c-.828-.064-1.14-.432-1.688-.73zm-8.54-1.546c-.74.752 2.076 1.776 2.974 1.832-.006-.476.272-.924.216-1.266-1.066-.188-2.466-.064-3.188-.566zm9.12.352c-.004.074-.1.046-.114.106.952.744 1.66.9 2.956.834l1.712-1.32c-1.4.126-3.166.996-4.554.4zm8.372 2.54c-.04-.836-.26-2.552-.776-2.852-1.084-.632-3.01 1.276-3.824 1.568.088.256.236.46.246.784a2.31 2.31 0 0 1 1.488.168c-.484.054-1 .05-1.34.28-.12.34.028.8-.05 1.272 1.148.324 2.46.496 3.91.54.28-.366.4-1.066.346-1.76zm-18.74-2.164c-.232-.166-1.806-2.212-2-2.128-2.846 1.12-5.506 3.06-7.884 4.9 2.268 4.864 3.2 10.826 3.344 16.57 2.6 1.214 4.88 2.966 8.4 3.148l-1.012-8.178c-.886-.374-2.156.016-2.984-.116-.008-1 1.266-.44 1.372-1.108.08-.508-.7-.546-.446-1.346.648.236.988.756 1.68.95.632-1.4-.008-3.824.08-5 .02-.216.108-1.2.594-1.028.43.152-.024 2.6.02 3.71.04 1.006-.12 2 .286 2.612 3.406-.464 6.866-.764 10.55-.864-.81-.348-1.774-.68-2.83-1.272-.572-.32-2.376-.994-2.54-1.54-.264-.866.692-1.328.854-2.07-1.72.94-2.054-.9-2.46-2.2-.368-1.2-.6-2.06-.668-2.74-1.48-.706-3.064-1.4-4.34-2.326zm17.234-1.88c2.372-1.15 2.8 4.3 1.87 6.052.144.524.64.724.84 1.194l-4.14 6.926c1.004-.626 2.44-.112 3.6-.6.432-.17.744-1.16 1.072-1.95.9-2.176 1.844-4.92 2.264-7 .094-.474.354-1.504.296-1.926-.104-.754-1.126-1.314-1.648-1.8l-2.54-2.424c-.406.6-1.276 1-1.608 1.488zM10.708 9.782c-1.13 1.244-.894 3.572-.756 5.23 2.04-1.284 4.752.1 4.728 2.286.976-.026.364-1.2.188-1.986-.576-2.508.972-5.232.07-7.526-1.75.132-3.186.848-4.228 1.996zm8.084-7.216c-2.56.724-5.836 2.584-6.886 4.88.814-.12 1.4-.528 2.2-.6.304-.02.7.128 1.05.04.694-.172 1.28-1.73 1.806-2.31.512-.566 1.126-.808 1.546-1.324.27-.13.67-.12.684-.526-.12-.126-.24-.2-.4-.2zm13.314.68c-2.654-1.494-7.148-2.6-9.972-1.214-2.28 1.136-5.36 3.016-6.41 5.4 1 2.3-.29 4.406-.372 6.74-.044 1.24.584 2.326.632 3.68-.336.554-1.36.6-2.072.584-.24-1.196-.66-2.54-1.888-2.676-1.74-.19-3.016 1.252-3.096 2.76-.094 1.772 1.36 4.71 3.424 4.506.796-.08.992-.88 1.86-.87.47.94-.726 1.234-.848 1.904-.032.174.1.852.176 1.17.374 1.548 1.21 3.55 2.032 4.728 1.044 1.494 3.092 1.72 5.3 1.866.394-.848 1.844-.8 2.79-.556-1.132-.448-2.186-1.536-3.06-2.5-1-1.104-2-2.29-2.07-3.734 1.894 2.628 3.46 4.924 6.904 6.08 2.606.874 5.652-.4 7.654-1.808.832-.584 1.328-1.512 1.92-2.36 2.21-3.2 3.24-7.72 3.016-12.12-.094-1.814-.09-3.6-.7-4.84-.636-1.276-2.788-2.4-4.048-1.264-.234-1.24 1.048-2.008 2.552-1.56-1.072-1.384-2.2-3.048-3.724-3.908zm4.946 40.934c2.074-1.032 5.95-2.776 7.252.004.539 1.232.971 2.508 1.292 3.814.352 1.492-.4 4.628-1.914 5.13-1.354.44-2.936.416-4.568.088a2.53 2.53 0 0 1-.556-.728c-1.166-.046-2.256.06-3.176.54.088.86-.496 1-1.04 1.2-.406 1.606.81 3.704.52 5.168-.208 1.044-1.492 1.204-2.434 1.4-.03.6.04 1.064.106 1.554-.216.794-1.184 1.248-2.1 1.36-3.016.36-7.596.526-10.5-.52-.81-1.986-1.448-4.4-2.12-6.67-2.83.3-5.12-1.2-7.276-2.2-.748-.346-1.8-.54-2.06-1.132-.27-.576-.16-1.68-.226-2.72-.17-2.66-.32-5.23-1-7.956-.316-1.224-.866-2.3-1.25-3.48-.354-1.092-.974-2.44-1.136-3.532-.24-1.614 1.28-1.704 2.252-2.404 1.5-1.08 2.68-1.68 4.31-2.656.48-.29 1.936-1 2.1-1.36.328-.668-.564-1.61-.8-2.134a6 6 0 0 1-.628-2.35c-1.366-.216-2.4-1.028-3.026-1.944-1.034-1.516-1.752-4.32-.856-6.454.07-.168.4-.5.472-.756.1-.508-.192-1.184-.21-1.724-.094-2.774.47-5.16 2.336-6 .76-3 3.47-4 6.026-5.524.956-.56 2.008-.92 3.096-1.32 3.9-1.436 9.888-1.166 13.126 1.284 1.372 1.04 3.568 3.23 4.352 4.8 2.074 4.19 1.926 11.194.476 16.292-.194.684-.48 1.69-.872 2.512-.276.574-1.13 1.72-1.026 2.23.106.524 1.95 1.924 2.346 2.306.712.686 2.064 1.6 2.174 2.464.12.92-.406 2.184-.672 3.074l-2.76 8.36" class="F"/><path d="M23.212 23.626c.112-.15.732-.4 1.6.04 0 0-1.026.172-.94 1.88l-.428-.086s-.44-1.552-.228-1.836" fill="#f7e4cd"/><path d="M30.71 38.33a.47.47 0 1 1-.94 0 .47.47 0 1 1 .94 0m.468 2.2a.47.47 0 1 1-.94 0 .47.47 0 1 1 .94 0" fill="#1d1919"/></g></symbol></svg>