<svg xmlns="http://www.w3.org/2000/svg" xmlns:xlink="http://www.w3.org/1999/xlink" viewBox="0 0 57 65" fill="#fff" fill-rule="evenodd" stroke="#000" stroke-linecap="round" stroke-linejoin="round"><use xlink:href="#A" x=".5" y=".5"/><symbol id="A" overflow="visible"><path d="M55.688 26.366V16.7l-8.378 4.806v9.7zm-8.378 6.72v8.995l7.826-4.513zm-1.04-10.94l-8.4 4.838v21.853l-9.45 5.455v9.676L55.687 48.22v-9.74l-9.416 5.455zM18.898 14.87l7.858-4.546-7.858-4.546zm-.52 11.204l18.93-10.943 9.45 5.455 8.4-4.838L27.86 0l-8.443 4.87 9.45 5.455-18.865 10.878zm-8.865 26.95l7.825-4.513-7.825-4.513zm17.794-9.674L8.409 32.45v-10.9l-.552-.325L0 16.7v31.53l8.444 4.87V42.147l18.865 10.9zm.034 10.94l-8.4-4.87v9.7l8.4 4.87zM9.481 31.82l8.377 4.838V26.98l-8.377-4.838zM.551 15.747l8.377 4.838 8.443-4.87-8.4-4.838zm35.718 21.82l-8.378-4.806-8.4 4.838 8.378 4.838zm-8.962-5.715v-9.708l-8.378 4.838v9.7zm18.4-10.618l-8.4-4.87-8.377 4.838 8.4 4.87zM28.38 31.8l8.4 4.87v-9.677l-8.4-4.87zm0 11.56v9.7l8.4-4.838V38.5z" stroke="none" fill="#6118ff" fill-rule="nonzero"/></symbol></svg>